<?xml version="1.0" encoding="UTF-8"?>
<svg id="Layer_1" data-name="Layer 1" xmlns="http://www.w3.org/2000/svg" viewBox="0 0 396.6 447.79">
  <defs>
    <style>
      .cls-1 {
        fill: #ffe800;
      }

      .cls-2 {
        fill: #de5626;
      }
    </style>
  </defs>
  <g>
    <path class="cls-1" d="M396.14,196.34c-.05-.87-.14-1.74-.26-2.56-2.68-27.29-12.68-51.7-28.88-70.78-13.71-16.11-31.26-27.64-50.85-33.64-7.95-27.66-24.13-50.81-46.86-67.08C249.63,7.72,226.55,0,202.46,0c-12.58,0-25.19,2.12-37.42,6.3-40.13,13.71-72.26,48.29-83.9,90.23-.31,1.15-.61,2.31-.89,3.46-11.1,3.67-21.48,8.75-30.84,15.24-.05.02-.07.05-.12.07C16.05,138.45-1.85,176.11.15,218.8c.87,24.18,9.03,47.16,23.08,66.1-2.96,9.81-4.82,19.81-5.5,29.85,0,.12-.02.24-.02.38-2.8,44.46,17.08,85.06,54.55,111.35.19.16.42.28.61.45,18.49,12.65,40.67,19.34,64.12,19.34,12.16,0,24.49-1.79,36.6-5.34,4.16-1.22,8.21-2.63,12.18-4.21,11.64,5.65,24.23,9.27,37.4,10.56,1.69.14,3.43.26,5.15.28l.16.02c1.43.09,3.81.21,6.63.21,25.29,0,50.27-8.04,72.28-23.24,21.41-14.82,37.89-35,47.63-58.38.02-.05.05-.09.07-.14,8.51-20.63,11.03-42.36,7.9-63.42,6-7.01,11.36-14.8,15.92-23.31,13.36-24.75,19.48-54.22,17.22-82.96ZM225.19,229.79c-.24,3.32-.89,7.29-2,12.16-1.11,4.85-2.87,9.48-5.08,13.9-2.21,4.42-5.29,7.95-8.82,11.06-3.76,2.87-8.4,4.19-13.93,3.74-6.4-.42-11.06-2.63-14.14-6.61s-5.53-8.4-6.84-13.27c-1.32-5.08-2.21-9.71-2.21-14.56v-10.16c0-2,.66-5.32,1.32-9.95.66-4.63,2.21-9.5,4.42-14.14,2.21-4.63,5.08-8.84,9.06-12.37,3.98-3.53,8.84-4.85,14.8-4.42,5.32.45,9.71,2.66,13.03,6.42,3.32,3.98,5.74,8.4,7.29,13.24,1.55,4.87,2.66,9.95,3.1,14.58.42,4.85.42,8.4.42,10.61l-.42-.24Z"/>
    <path class="cls-1" d="M225.61,230.02l-.42-.24c-.24,3.32-.89,7.29-2,12.16-1.11,4.85-2.87,9.48-5.08,13.9-2.21,4.42-5.29,7.95-8.82,11.06-3.76,2.87-8.4,4.19-13.93,3.74-6.4-.42-11.06-2.63-14.14-6.61s-5.53-8.4-6.84-13.27c-1.32-5.08-2.21-9.71-2.21-14.56v-10.16c0-2,.66-5.32,1.32-9.95.66-4.63,2.21-9.5,4.42-14.14,2.21-4.63,5.08-8.84,9.06-12.37,3.98-3.53,8.84-4.85,14.8-4.42,5.32.45,9.71,2.66,13.03,6.42,3.32,3.98,5.74,8.4,7.29,13.24,1.55,4.87,2.66,9.95,3.1,14.58.42,4.85.42,8.4.42,10.61Z"/>
  </g>
  <path class="cls-2" d="M142.67,389.38h-1.19s-1.18-.43-1.18-.43l-1.11-1.17-1.22.55-1.12-.52-1.36,1.35-1.12-.6-1.06-.86-1.04-.78-1.38.84-1.3.34-.93-1.17-1.25.08-.73-1.67-1.24.04-1.35.31-1.14-.33-1.08-.55-.93-.91-1.24-.13-1.14-.4-1.04-.61-.69-1.34-1.52.39-1.48.25-1.06-.6-.38-1.81-1.26-.21-1.22-.31-1.28-.22-.49-1.48-1.33-.18-.4-1.54-1.4-.1-1.41-.13-.27-1.62-1.27-.34-.85-.86-1.4-.24-.07-1.72-1.62-.04.14-1.86-.71-.96-1.78.03.26-1.84-1.57-.21-1.28-.51-.6-1.07-1.04-.73-.35-1.24-.07-1.41-1.36-.55.05-1.45-1.17-.7.35-1.57-.38-1.14-.47-1.08-1.65-.53.3-1.45-.94-.9-1.28-.79,1.19-1.72-.62-1.04-1.01-.93.37-1.35-1.65-.8.93-1.47-1.14-.97-.42-1.15,1.04-1.4.02-1.2-1.33-1.03-.18-1.19.33-1.23.08-1.2-.48-1.18-.6-1.19.86-1.21.03-1.2-.78-1.24,1.41-1.12.08-1.19-.85-1.29,1.22-1.07-.48-1.27.94-1.07-.15-1.23-.62-1.34.51-1.13.96-1.01-.54-1.37.29-1.17,1.03-.96-.19-1.31v-1.27s.17-1.23.17-1.23l1.52-.73-.49-1.47,1.65-.64-.25-1.4.88-.93-.13-1.38,1.1-.81-.02-1.35.61-1.04,1.05-.8.93-.85.65-1,.53-1.07.23-1.26-.38-1.67,2.1-.07.53-1.08.24-1.29.06-1.45,1.09-.7,1.63-.27.61-1.03.45-1.17-.1-1.65,1.34-.45,1.32-.44v-1.62s1.28-.45,1.28-.45l.43-1.25h1.73s.42-1.26.42-1.26l.41-1.31.68-1.04,1.77.14.03-1.29-.99.35-.86-1.8-1.21-.12-1.36.49-1.4.57-.95-1.21-.99-.97-1.39.46-.91-1.19-1.63,1.13-.64-1.96-1.11-.49h-1.28s-1.47.46-1.47.46l-1.2-.29-1-.79-.91-.98-1.5.4-.98-.8-.56-1.66-1.66.63-1.22-.3-1.21-.34-1.04-.66-.4-1.76-1.32-.15-1.08-.57-1.47.03-.49-1.49-.48-1.43-1.82.48-.56-1.29-1.71.23-.49-1.36-.45-1.36-1.04-.64-.61-1.12-1.27-.39-.91-.79-.84-.86-1.59-.16.49-2.1-2.17.32.49-2-1.73-.14-.59-1.08-.48-1.15.02-1.48-1.59-.37.33-1.64-2.16-.09-.54-1.1-.41-1.17.12-1.42-1.35-.69-.68-1.03-.37-1.18-.29-1.2.07-1.32-.13-1.23-.59-1.07.26-1.32-.2-1.18-1.47-.88,1.01-1.44-1.5-.94-.04-1.22-.61-1.15-.08-1.22,1.6-1.35-.32-1.16-.31-1.18-.46-1.19.04-1.2.24-1.19.5-1.17-.42-1.23-.14-1.22.45-1.16.48-1.14-.53-1.3,1.1-1.02-.06-1.23-.86-1.42,1.44-.9-1.01-1.51.59-1.1.85-1.01-.21-1.34.67-1.05.75-1.01-.25-1.39,1.45-.71.41-1.13.06-1.29.81-.95.58-1.05v-1.35s.93-.88.93-.88l1.32-.63-.33-1.58,1.64-.4.42-1.14-.71-1.91.8-.93,1.1-.71,1.69-.25-.39-1.81.99-.76.3-1.32,2,.12.47-1.18.61-1.07,1.45-.27.34-1.34.55-1.15.68-1.04,1.81.2.26-1.51.84-.87.74-1,.78-.97,1.55.03.94-.75,1.3-.24.52-1.36,1.36-.12.91-.8,1.15-.4,1.07-.53,1.07-.53.71-1.19,1.15-.38,1.29-.07,1-.68.76-1.23,1.27-.1,1-.73,1.43.38.98-.79,1.11-.45,1.18-.24,1.17-.26.83-1.54,1.31.22,1.38.63,1.12-.47,1.08-.73,1.2-.1,1.22.07,1.12-.71,1.29.68,1.19-.18,1.18-.41,1.21.09,1.2-.6,1.22.09,1.22-.03,1.24-.39,1.15,1.06,1.27-.59,1.07,1.41,1.18.21h1.21s1.3-.46,1.3-.46l1.28-.19,1.17.35,1,1.01,1.07.64,1.3-.17,1.44-.52,1.12.5.68,1.71,1.07.55,1.11.43,1.44-.31,1.01.7,1.01.69,1.05.59,1.48-.21.62,1.38,1.62.39-.26-1.58-.69-1.12.98-1.33-1.58-1.03-.19-1.19-.11-1.2-.32-1.18.97-1.28.49-1.23-1.26-1.13.78-1.24-1.32-1.15,1.43-1.24-1.51-1.17v-1.21s1.53-1.2,1.53-1.2l-1-1.21.87-1.18.21-1.19-1.07-1.25.1-1.2.22-1.19v-1.21s1.01-1.11,1.01-1.11l-.11-1.21-.42-1.26-.25-1.25,1.2-1.04-.38-1.27.44-1.14,1.17-1-.03-1.22-1.33-1.51,1.5-.89.96-.99-1.59-1.65.95-.99,1.54-.79.36-1.12-.92-1.55.66-1.04-.05-1.3,1.16-.84-.12-1.34.15-1.25,1.22-.78.68-1-.6-1.63,1.55-.57,1.01-.81-.85-1.84.79-.95.75-.96,1.35-.57-.17-1.55,1.61-.36.79-.9.26-1.3.47-1.16,1.61-.24.28-1.32.69-.99.32-1.35,1.67-.06,1-.67.09-1.64,1.03-.66,1.62.05.18-1.65.96-.73.63-1.19,1-.7,1.85.58.24-1.85,1.7.48.81-.99,1.17-.36.74-1.18,1.11-.47,1.47.35.87-1,1.13-.4,1-.77,1.46.57,1.16-.27.77-1.62,1.28.11,1.34.47,1.16-.25h1.21s1.11-.47,1.11-.47l1.06-.95,1.14-.58,1.22.08,1.3,1.19,1.09-1.75,1.22.2,1.21.18,1.21-.53,1.17,1.9,1.22-.66,1.18.4,1.29-1.02,1.24-.14,1.04,1.49,1.37-1.1,1.07.96,1.06.87,1.35-.65,1.2.16,1.16.33.91,1.23,1.43-.62.85,1.3,1.48-.61,1.09.54.82,1.19,1.37-.18,1.02.67,1.5-.34.81,1.1.96.77,1.4-.04.27,1.93.97.68,1.64-.35.75,1.05.55,1.3,1.12.49,1.91-.5.55,1.26,1.04.64.2,1.59,1.18.48,1.21.48,1.08.64.02,1.65.85.84.87.83,1.15.6.52,1.13.97.77.05,1.45,1.54.38,1.3.59.58,1.09-.66,1.84.97.82,1.07.78.82.94.08,1.33.15,1.28,1.02.85-.41,1.51,2.17.38-.83,1.66,1.29.79v1.3s-.17,1.34-.17,1.34l1.14.89.19,1.21.36,1.16.3,1.17.68,1.08.83,1.06.04,1.25-.43,1.33-.7,1.36,1.77.91-1.26,1.43.62,1.12.09,1.2-.11,1.22.97,1.11.74,1.16-.28,1.24.23,1.21-1.43,1.28,1.17,1.17-.67,1.22.54,1.2-.13,1.21v1.21s-.68,1.19-.68,1.19l-.21,1.19.54,1.23-.46,1.18.46,1.25.78,1.29-1.22,1.1.05,1.22.13,1.24.47,1.29-.67,1.14-.41,1.16.61,1.33-.2,1.2-.69.47.34-.56,1.01-.69,1.54.43.99-.71,1.45.34.94-.85.94-.88,1.07-.58,1.41.37,1.07-.56.72-1.67h1.27s1.34.3,1.34.3l1.16-.3,1.28.19,1.14-.34,1-1,1.3.36.95-1.48,1.44,1.29,1.21.03,1.12-.61,1.06-1.26,1.21-.06,1.24.31,1.18-.5,1.26,1.26,1.17-1.12,1.21.1,1.21-.27,1.19.54,1.17.59,1.23-.43,1.2.05,1.31-.76,1.13.71.98,1.52,1.43-1.23.98,1.22,1.46-1.04,1.01.95,1.37-.45.65,2.06,1.33-.27,1.5-.66.66,1.69.92.9,1.14.33,1.35-.11.82,1.03,1.35-.05.7,1.2.93.75,1.63-.42,1.37.09v2.16s1.59-.2,1.59-.2l1.39.14.8.95.07,1.82,1.72-.19,1.15.53.19,1.57,1.18.5.07,1.6.72.93,1.61.14.15,1.45h1.87s.21,1.37.21,1.37l.88.84.9.83.2,1.33.91.83.9.85.48,1.11.8.92.78.95-.87,1.82.67.98.93.86.51,1.08.04,1.28.8.95,1.26.78.8.99-1.28,1.74,2.19.51.16,1.22-.27,1.35-.42,1.35.95.98.76,1.06-.38,1.3.35,1.15-.62,1.29.9,1.08-.33,1.22,1.03,1.12-.77,1.23-.43,1.19.96,1.19.69,1.22-.58,1.18-.61,1.15.2,1.22-1.13,1.06-.06,1.18v1.2s.2,1.24.2,1.24l-.54,1.1.6,1.37-1.58.82.09,1.25.76,1.48-.45,1.12-.42,1.13-1.87.57-.15,1.21-.42,1.11.13,1.36-1.11.79-.15,1.25v1.34s-.54,1.09-.54,1.09l-.26,1.23-1.94.25.11,1.46-1.14.69-.88.84.68,1.92-.71.98-1.66.27-.57,1.06v1.54s-1.95-.07-1.95-.07l.27,1.79-1.4.37-1.23.49.05,1.68-.59,1.11-1.08.62-1.69-.04-.9.77.15,1.94-1.74-.17-.49,1.26-1.66-.15.22,2.18-1.88-.47-.22,1.69-.77.99-1.88-.59-.77.97-.84.88-.76,1.03-.99.67-1.44-.09-.49,1.55-1.36.02-1.05.56-1.14.4-1.02.62-.7,1.33-1.56-.53h-1.29s-.68,1.45-.68,1.45l-1.39-.27-.89,1-1.11.43-.99.78-1.28-.05-1.23.06-1.37-.43-.93,1.04-1.25-.09-.54.98.52.61,1.39.31-.02,1.76,1.5.22,1.11.63.09,1.59.32,1.34,1.92-.1v1.61s.44,1.22.44,1.22l1.62.23,1.08.69-.52,1.95,1.56.32.24,1.33,1.84.17.72.99-.16,1.58.59,1.06,1.51.47.75.98-.31,1.61,1.22.7-.68,1.77,1.15.74,1.08.8.88.92-.39,1.54,1.34.71.83.97-.55,1.56,1.38.74-.65,1.56.42,1.13.44,1.12-.18,1.33,1.06.92-.32,1.33.51,1.08.35,1.13.56,1.08.94,1.01.34,1.15-1,1.39,1.47.96-.83,1.33.54,1.13.35,1.16-.69,1.25.77,1.14-.16,1.2.39,1.18.09,1.19.11,1.2.43,1.22.13,1.22-.41,1.18.16,1.23-.52,1.15-1.4,1,1.29,1.43-1.96.84,1.33,1.5-1.43.89.14,1.26.36,1.35-.48,1.11-1.04.91.51,1.46-.66,1.04-1.4.71-.45,1.09-.17,1.23-.55,1.06-.72.97-.09,1.31-.63,1.02-1.15.7-.19,1.29-1.6.36.19,1.56-1.15.63-.66.98-.93.77-.64,1-.68.98-.09,1.51-.51,1.16-1.92-.18.32,2-2.22-.58.03,1.77-.59,1.14-1.77-.21-.68,1.05-1.06.58-1.18.41-.4,1.47-.89.82-.83.93h-1.44s-1.24.25-1.24.25l-.84.93-.52,1.55-1.13.47-1.37-.05-1.38-.15-.74,1.29-1.4-.27-.97.8-.89,1.08-1.33-.17-1.16.31-1.39-.54-.9,1.28-1.22.03-1.21.03-1.17.23-1.01,1.34-1.24-.11-1.29-.74-1.15.58-1.25-.87-1.16.72-1.2-.06-1.19-.22-1.2.39-1.25.85-1.06-2.01-1.22.37-1.12-.6-1.44,1.73-.93-1.82-1.12-.42-1.54,1.65-.91-1.49-1.25.08-1.31.25-.71-1.89-1.34.33-1.33.23-1.15-.36-.66-1.68-1.76,1.24-.78-1.29-.85-1.03-1.77,1.01-.55-1.66-1.65.63-.48-1.7-1.56.37-.3-1.93-1.27-.18-1.25-.24-1.48.11-.26-1.82-1.47.06-.63-1.2-.88-.82-1.51.04-1.19-.42-.25-1.64-.54-1.23-1.75.24-.9-.8-.33-1.45-.76-.94-.93-.74-.85-.83-1.63-.05-.61-1.09-1.29-.43.27-1.89-.76-.91-1.35-.41-.45-1.19-1.06-.67-.51-1.13-.53-1.09-1.34-.48-.43-1.17-1.38-.49-.03-1.44-1.23-.62-.76-.94.32-1.62-1.02-.78-1.17-.7.31-1.56-.79-.2-.39.45-.17,1.24-.65,1.03-1.06.84-.64,1.02.8,1.71-1.87.42-.42,1.13.39,1.56-.47,1.12-.8.94-.42,1.15-1.91.28.34,1.6-.68,1-.95.82-.5,1.11-.54,1.09-.28,1.27-1.36.51-.85.86-.94.79-.24,1.33-.14,1.44-1.54.29-.65,1.02-.47,1.18-1.65.11.29,1.93-.79.93-1.79-.1-.85.83-.4,1.33-1.31.33-.63,1.1-1.5.05-1.02.62-.29,1.59-1.52-.06-.37,1.56-1.32.18-1.28.2-.32,1.8-1.64-.41-.61,1.4-.96.8-1.64-.6-.98.75-.75,1.32-1.62-.78-.83,1.18-.88,1.16-1.42-.41-1.39-.45-.96,1.02-1.01.98-1.5-1.17-1.07.75-1.1.69-1.3-.52-1.12.7-1.21.06-1.26-.72-1.12,1.56-1.22.06-1.22.06ZM152.47,274.59l-1.09.38-1.24.05-1.51-.61-.88,1.04-1.26.08-.5,1.85-1.26.08-1.36-.11h-1.33s-.58,1.52-.58,1.52l-.77,1.09-1.47-.25-.84.93-1.72-.62-.83.97-.64,1.25-.97.69-1.07.53-1.27.24-.79.97-.93.75-1.04.6-1.51-.02-.33,1.54-.37,1.44-.94.71-1.81-.31-.62,1.11-.65,1.06-.54,1.16-1.54.1-.44,1.25-1.58.12-.29,1.38-.26,1.37-1.62.15-.37,1.25-.85.84-.16,1.38-1.7.19.16,1.6-1.85.14-.82.9.45,1.72-1.84.26.29,1.57v1.35s-.74.95-.74.95l-.19,1.22-.91.86-1.18.77.3,1.42-1.2.8.19,1.34-1.42.77-.56,1.09-.41,1.14.9,1.48-1.12.96.26,1.28.66,1.32-1.88.9.08,1.23.55,1.26-.83,1.14,1.32,1.28-1.28,1.18.92,1.21.24,1.19-1.16,1.31-.06,1.26,1.35,1.03.27,1.17-.16,1.27.16,1.22.76,1.04.93.94-.36,1.43.48,1.12,1.27.72-.61,1.7.64,1.06,1.47.51-.21,1.63,1.25.6.17,1.44,1.07.71,1.46.31.66,1.05.4,1.36,1.48.18.94.76.5,1.33,1.31.28,1.2.38,1.13.46.4,1.65,1.54-.22.43,1.73,1.44-.11.89.94,1.4-.1.84,1.09,1.36-.09,1.1.52.94.95,1,.78,1.14.44,1.19.26,1.29-.14,1.42-.93.85,1.91,1.23.02,1.26-.39,1.24-.7,1.15.51,1.2,1.13,1.22-.2,1.18-.47,1.04-1.26,1.28.53,1.32.45.9-1.34,1.32.29.96-.89,1.57.74.89-1.02.81-1.09.92-.79,1.68.57.44-1.59.8-.93,1.89.62.89-.84.46-1.36.33-1.44,1.5-.09,1.34-.33.27-1.43,1.46-.25-.35-1.94,2.04.21.86-.86.43-1.21-.02-1.52.57-1.05.98-.76,1.13-.68-.16-1.53.91-.83,1.71-.36-.51-1.69.34-1.17.34-1.16.62-1.01,1.73-.46.05-1.31.45-1.11-.24-1.42,1.38-.69,1.31-.73-.86-1.66,1.1-.84-.7-1.55,1.13-.84,1.13-.86.22-1.19.8-.99-.16-1.32.32-1.15.38-1.14-.65-1.44,2.05-.64-1.44-1.65,1.93-.71-.9-1.48.49-1.1.58-1.08,1.12-.96-.81-1.42,1.4-.91-1.51-1.55.33-1.15.44-1.13.97-1.03-.67-1.34.03-1.2.33-1.15.38-1.15.71-1.1.46-1.14-.06-1.22.79-1.11.27-1.18-1.06-1.34,1.38-1.12-1.18-1.36.3-1.22-.28-1.3.24-1.23,1.91-.78.1-1.1.21-1.11.21-1.2.73-.91.94-.69,1.13-.39.64-1.04.91-.76,1.19-.12,1.16.02,1.02-.89,1.17.85,1.12-.22,1.36-.92.79,1.47,1.62-.79.96.85.67,1.13,1.3.35.6,1.11.4,1.18,1.23.7-.53,1.52.39,1.07.67,1.06-.25,1.19-.11,1.15.49,1.2-.5,1.1-.96,1.05.95,1.26-1.32,1.01.19,1.25,1.6,1.25-.15,1.18-.48,1.19-1.18,1.24,1.46,1.13-.22,1.21.7,1.13-1.46,1.37.58,1.15.45,1.15-.65,1.34.91,1.06.67,1.09.55,1.1-1.04,1.5,1.24.91.45,1.12.64,1.05.64,1.04-.51,1.45.47,1.11-.07,1.33,1.23.79-.1,1.36.68,1.02.3,1.2.47,1.12.52,1.1,1.21.71.44,1.14.2,1.3.81.92,1.34.56.34,1.22.94.8.03,1.48,1.06.71.81.9.67,1.01.73.97,1.74.05.42,1.23.17,1.51,1.02.69,1.22.46.81.89.74.98,1.28.35.42,1.39,1,.69,1.16.46.89.82,1.31.21.95.73,1.04.58,1.25.22.56,1.44,1.39-.06.51,1.69,1.09.56,1.2.31,1.37-.17h1.28s1.1.48,1.1.48l.94,1.07,1.09.66,1.31-.22,1.36-.65,1.15.33,1,1.54,1.21.28,1.24.09,1.26-.79,1.21.24,1.23.16,1.23-.02,1.12-.99,1.33.73,1.17-.44,1.13-.55,1.02-.83,1.5.73.65-1.77,1.07-.5,1.08-.48.95-.72,1.56.36,1.34-.14.37-1.66h1.47s.19-1.74.19-1.74l1.86.38-.06-1.91.9-.79,1.92.25.13-1.58,1.45-.31.94-.81-.09-1.65.76-.93.81-.89.59-1.05,1.41-.55.41-1.18.07-1.34.15-1.25,1.44-.68-.08-1.34.63-1.06,1.29-.89.07-1.27-1.3-1.54,1.46-.95.88-1.12-1.8-1.43.75-1.14,1.31-1.17.03-1.25-1.39-1.19.21-1.22-.6-1.15.64-1.29-.78-1.11-.55-1.12.53-1.34-.09-1.23-1.52-.84.75-1.47.12-1.31-1.94-.59-.22-1.18-.3-1.15.3-1.42-1.39-.68.5-1.56-.43-1.13-1.06-.8-.88-.88.35-1.59-1.17-.7-.76-.94-1.22-.62.29-1.64-.51-1.11-1.62-.3-.57-1.07.12-1.62-1.66-.2-.76-.92-1.21-.52-.79-.88.3-1.91-1.86.13.08-1.76-1.18-.51-.7-1-1.36-.29-.85-.84-.31-1.49-1.29-.32-.9-.79-1.17-.44-.35-1.54-.92-.79-1.75.41-.74-1.04-.58-1.31-1.02-.65-.91-.84-1.19-.36-1.43.09-1.25-.19-.96-.73-.5-1.69-1.8,1-.98-.72-1.01-.66-1.3.04-.53-2.21-1.4.46-1.12-.56-1.41.85h-1.24s-.88-1.6-.88-1.6l-1.48.95-.98-1.06-.99-.96-1.4.55-1.2-.23-1.15-.39-.87-1.27-1.45.51-.59-1.41-1.56.21-.85-.9-.2-1.42-1.25-.54-.42-1.14-1.35-.76.24-1.38v-1.23s-.78-1.19-.78-1.19l1.59-1.11.25-1.07-.82-1.44.87-.94,1.2-.63.42-1.06-.35-1.94,1.37-.36.91-.85,1.55.36.9-.85,1.03-.79,1.18-.5,1.25,1.08,1.14.03,1.16.05,1.22-.31,1.09.5,1.19-.07.97,1.04,1.35-.76,1.31-.45,1.11.4.72,1.79,1.22-.08,1.27-.18,1.19.1.93.89,1.13.61,1.27-.4,1.09,1.13,1.37-1.71,1.08,1.49,1.26-.83,1.18.51,1.19.64,1.22-.78,1.2.18,1.2-.04,1.2-.02,1.18-.45,1.15-.64,1.2.13,1.26.56,1.32.78.96-1.74,1.43,1.25,1.11-.67,1.2-.18,1.24-.02.97-1.11.99-.92,1.25.03,1.09-.5,1.61,1.03.76-1.47,1.37.23.92-.94,1.16-.35,1.09-.51,1.37.06,1.16-.4.79-1.1,1.24-.25.77-1.08.55-1.38,1.61.29.9-.82.82-.92.58-1.22,1.25-.33,1.08-.57.39-1.39.88-.79,1.01-.65.9-.78.7-.95,1.57-.13.62-1.04,1.46-.31.44-1.19.37-1.23.58-1.04,1.37-.49.52-1.09-.51-1.73.93-.8,1.16-.7.58-1.04.98-.85.45-1.12-.23-1.39,1-.89-.81-1.54,1.8-.67.53-1.11-.16-1.28-.87-1.38.24-1.14.55-1.11-.32-1.2,1.36-1.12-1.08-1.2.07-1.17-.38-1.14.35-1.22.32-1.27-.77-1.05-.37-1.12-1.21-.85.16-1.29.87-1.58-1.79-.58.48-1.48-1.7-.53.11-1.35-1.23-.68,1-1.9-1.17-.7-1.56-.4.47-1.74-.3-1.27-.85-.88-1.27-.51-.37-1.28-1.3-.41-.36-1.36-.77-.96-1.68.15-1.32-.19.06-2.15-1.58.24h-1.36s-.89-.78-.89-.78l-.46-1.76-1.6.66-1.21-.09-.76-1.36-1.27.08-.86-1.36-1.15-.4-1.39.83-1.05-1.03-1.38,1.26-1.1-.81-1.2.1-1.19.18-1.18-.61-1.19.31-1.17.35-1.19-.09-1.16.33-1.14.36-1.42-1.43-1.17.35-1.09.69-1.17.27-1.29-.17-1.07.68-.89,1.18-1,.74-1.72-1.31-.45,2.2-1.18.23-1.35-.14-1.41-.22-.8,1.12-.84.98h-1.35s-.98.68-.98.68l-1.44-.11-.65,1.26-1.26.24-.49,1.45-1.45-.03-1.25.31-.41,1.48-.52,1.29-1.25.31-1.26.34-.72,1-1.56.02-.84.88-.75.97-.59,1.13-1.07.62-.2,1.48-1.79-.06-.51,1.17.07,1.66-.84.84-.78.89-1.96-.05-.51,1.14-.71.88-.4,1.28-1.34.15-.8.92-.87,1.02-1.17.41-1.18.59-1.3-1.46-1.2.8-1.07-.77-1.01-.56-1.73,1.07-1.14-.62-.34-1.66-1.01-.63-1.55-.27.55-1.89-1.77-.37.27-1.45.23-1.27-1.38-.96-.44-1.24.38-1.26,1.38-.98.36-1.06-.97-1.69,1.67-.54-.08-1.36,1.56-.61-1.19-1.84,1.88-.49-.66-1.58.13-1.24,1.9-.52.1-1.26.18-1.22v-1.29s.35-1.14.35-1.14l1.17-.86-.65-1.5.99-.93.37-1.14.52-1.1.26-1.18-.52-1.4,1.41-.84.81-1.03-.73-1.43,1.04-.98-.32-1.31.25-1.17-.15-1.25.69-1.08.53-1.12,1.01-1.04-.53-1.31.59-1.13-.89-1.34.48-1.14-.59-1.27,1.38-1.06-.8-1.27-.27-1.21,1.09-1.13.73-1.18-1.47-1.24,1.06-1.18.46-1.21-1.13-1.18-.45-1.18,1.54-1.29-1.13-1.13.49-1.25-1.52-1.03-.17-1.17.84-1.33-.11-1.2-1.22-.98-.36-1.13.79-1.41-.98-.98,1.07-1.56-.98-.96-.93-.95-.75-.99.51-1.49-1.3-.75-.81-.92.49-1.56-1.43-.59.45-1.61-.61-1.04-.67-.99-.18-1.33-1.3-.55-.19-1.37-.93-.81-.84-.88-1.03-.68-1.33-.35-.93-.73-.09-1.71-1.74.25-.34-1.53-1.21-.37-1.12-.46-.61-1.3-1.39.02-.96-.73-1.23-.18-1.12-.39-1.15-.31-1.26.07-1.16-.15-1.04-.6h-1.19s-1.07-.58-1.07-.58l-.97-1.42-1.37,1.34-1-1.88-1.3,1.53-1.13-1.23-1.22.44-1.18.74-1.19-.06-1.26-.59-1.06,1.11-1.2-.05-1.38-.77-1.18.31-1.07.68-1.16.35-1.2.24-.9.97-1.1.47h-1.36s-.79,1.05-.79,1.05l-1.64-.32-.42,1.55-1.31.27-.91.82-1.09.61-.8.94-.78.95-.13,1.52-.46,1.17h-1.94s.59,1.93.59,1.93l-2.3-.13.45,1.73-.22,1.25-1.74.4-.23,1.25-.72,1-.86.94.4,1.48-.3,1.17-.13,1.23-1.14.87-.78,1.02v1.27s.75,1.45.75,1.45l-.4,1.12-.91,1-.96,1.02.63,1.36-.99,1.04.19,1.26.53,1.29-.73,1.11-.19,1.19-1.01,1.11.9,1.29-.33,1.18-.28,1.19-.04,1.21,1.13,1.23-.29,1.19-.88,1.2.49,1.2-.92,1.23.72,1.18-.02,1.21-.15,1.22.51,1.17,1.01,1.12-1.8,1.39.61,1.14-.33,1.25,2.05.94-1.47,1.42-.04,1.23,2.08.87-1.04,1.4.58,1.12.79,1.07-1.35,1.5.94,1.03.88,1.04.3,1.16-1.03,1.49,2.03.73-.57,1.39-.28,1.33,1.91.72-.89,1.51,1.58.79-.89,1.52,1.36.83-1.1,1.62.83,1,.8,1,1.21.85-.91,1.6,1.21.84-.18,1.35.27,1.18,1.3.79.79.98-.61,1.54-.12,1.36,1.66.62.45,1.12-.33,1.46.32,1.2.5,1.07.27,1.15,1.25,1.11-.33,1.29.48,1.38-1.73.88-.44,1.09.12,1.42-1.04.79-.5,1.19-1.12.61-1.12.5-.69,1.28-1.29.16-1.01,1.16-1.4-.57-1.25.72-1.33.02-1.03-1.36-1.31.06-1.45.05-.55-1.55h-1.61s-.51-1.32-.51-1.32l-1.05-.8-.52-1.19-.03-1.35-.46-1.12-1.86-.31.68-1.79-.74-.96-1.54-.45-.74-.94-.45-1.13-.84-.87.54-1.85-1.6-.32-.67-.99-.44-1.17-.9-.82-.88-.82-1.14-.58-.18-1.43-.68-1-.63-1.06-1.29-.41-1.4-.26-.18-1.54-1.01-.66-1.18-.45-.21-1.64-1.88.48-.99-.63-.2-1.77-1.01-.65-1.39-.04-.71-1.14-1.25-.21-.65-1.36-1.03-.66-1.55.51-.75-1.33-1.5.58-.94-.94-1.01-.85-1.51,1.01-.89-1.42-1.36.68-1.2.06-1.02-1.41-1.23.14-1.25.83-1.16-1.37-1.21.81-1.15.84-1.23-.76-1.28-.71-1.11.88-1.06.89-1.47-1.21-1.07.79-1.04.78-1.36-.33-.98.9-1.16.35-1.43-.31-.52,1.85-1.07.52-1.03.59-1.53-.33-.66,1.27-1.53-.21-.65,1.23-1.27.27-1.02.66-.14,1.8-1.78-.31-.07,1.79-1.08.57-1,.68-.85.84-1.23.48-.23,1.42-1.11.61-.8.9-1.14.63.23,1.68-.87.83-1.96.12.35,1.67-.21,1.26-1.75.38.34,1.55-.41,1.12-1.64.55.16,1.39-1.4.74-.02,1.3-.16,1.23.02,1.27-.2,1.19-1.22.94.7,1.4-.45,1.13.24,1.25-1.64,1.01.4,1.27.04,1.22-.25,1.22.86,1.19-.58,1.24.86,1.12.16,1.18-.35,1.29.21,1.2-.04,1.28,1.03.95-.05,1.31,1.21.8.9.88-.62,1.68.66,1.03.43,1.18,1.55.41-.26,1.71.77.97,2.02-.13.78.89.66,1.02.26,1.46,1.48.17.68,1.04.36,1.47,1.5.04.98.69.55,1.33,1.19.41.72,1.15,1.2.37.91.88,1.45-.14,1.02.66,1.07.56,1.11.48.96.83,1.39-.19,1.16.33.86,1.15,1.53-.71.64,1.86,1.69-1.33.76,1.63,1.34-.3,1.17.26,1.13.42,1.18.26,1.28-.27,1.06.82,1.18.23,1.04,1.13,1.28-.34,1.29-.54,1.15.46,1.23-.2,1.21-.06,1.16.55,1.2.15,1.17.77h1.22s1.22-.33,1.22-.33l1.21-.55,1.21,1.18,1.19-1.46,1.23.79,1.23.4,1.16-.85,1.2-.14,1.19-.23,1.24.31,1.28.55.99-1.75,1.37,1.06,1.19-.25,1.06-.92,1.38.75,1.05-.92,1.11-.37.92-1,1.43.74.99-.76,1.2-.03,1.27.27.81-1.59,1.28.35,1.12-.96,1.3.19,1.32-.31,1.01,1.4,1.3-.11,1.42-.04.62,1.42,1.12.55,1.13.64v1.57s1.58.44,1.58.44l.75,1.08.25,1.29-.9,1.45.31,1.14,1.22,1.27.04,1.35-.76,1.17-.64,1.13-.94.92-1.25.58.42,2.02-.96.94-2.04-.73-.54,1.52-1.51-.54-1.16.54-1.21.4-1.11.76-.89,1.57-1.26.32-1.73-1.59-.85,1.84Z"/>
  <polygon class="cls-2" points="220.8 231.78 220.6 232.96 220.14 234.09 220.19 235.32 220.7 236.66 220.84 237.94 220.34 239.07 218.77 239.89 220.05 241.51 219.45 242.6 218.87 243.69 218.97 245.01 216.79 245.49 217.02 246.85 216.25 247.83 216.8 249.38 216.52 250.59 214.78 251.08 215.36 252.73 214.1 253.43 212.93 254.13 213.09 255.62 212.54 256.7 211.83 257.68 210.36 258.1 210.44 259.66 208.92 259.97 208.94 261.56 208.02 262.37 206.61 262.64 206.21 263.96 205.17 264.59 204.79 266.08 203.43 266.28 202.29 266.73 201.57 267.94 199.83 267.08 198.75 267.43 197.99 268.91 196.72 268.75 195.47 268.19 194.37 268.53 193.13 270.06 191.96 269.28 190.72 269.21 189.89 267.85 188.64 267.83 187.35 267.72 186.14 267.34 185.82 265.72 184.9 265.01 183.98 264.28 182.81 263.73 182.28 262.62 181.34 261.83 181.37 260.38 179.86 259.9 178.62 259.18 178.17 258.03 179.07 256.29 178.23 255.35 177.29 254.42 176.65 253.36 176.81 252.04 176.9 250.77 176.07 249.75 176.77 248.36 174.73 247.55 175.89 246.11 174.8 245.06 175.08 243.8 175.54 242.54 174.63 241.42 174.72 240.2 174.63 239 174.61 237.8 174.2 236.6 173.65 235.39 173.9 234.17 174.63 232.98 175.63 231.83 174.13 230.53 175.69 229.45 175.36 228.21 175.57 227.03 175.97 225.87 175.31 224.56 174.88 223.25 175.47 222.12 175.55 220.9 177.25 220.04 176.43 218.61 177.4 217.62 177.2 216.32 177.66 215.19 177.99 214.04 178.97 213.1 179.51 212.02 179.35 210.69 180.14 209.72 180.09 208.4 179.76 206.93 181.27 206.3 181.63 205.14 181.93 203.94 181.95 202.57 182.98 201.76 183.81 200.85 183.77 199.39 184.45 198.36 185.33 197.48 186.11 196.54 186.75 195.48 188.33 195.24 188.97 194.2 190.44 193.99 191.01 192.87 191.6 191.74 192.46 190.87 193.91 190.86 194.8 190.08 195.2 188.3 196.49 188.1 197.86 188.27 199 187.93 200.25 188.15 201.37 187.92 202.5 187.09 203.67 187.73 205.02 186.6 205.89 188.32 206.91 188.86 208.14 188.86 209.72 188.4 210.76 189.1 211.52 190.15 212.74 190.61 212.7 192.39 214.31 192.52 215 193.53 215.95 194.35 216.21 195.64 216.38 196.93 217.41 197.72 218 198.78 219.33 199.51 219.29 200.86 218.45 202.46 220.23 203.1 219.63 204.56 221.24 205.35 220.88 206.7 221.92 207.71 220.41 209.25 221.27 210.31 222.55 211.33 221.37 212.72 221.01 213.96 221.26 215.13 222 216.27 221.49 217.49 222.19 218.66 221.48 219.87 221.28 221.06 222.46 222.28 223.07 223.51 221.21 224.63 222.19 225.89 222.79 227.16 222.4 228.35 220.89 229.38 221.97 230.74 220.8 231.78"/>
</svg>