<?xml version="1.0" encoding="UTF-8"?>
<svg id="Layer_1" data-name="Layer 1" xmlns="http://www.w3.org/2000/svg" viewBox="0 0 335.28 457.41">
  <defs>
    <style>
      .cls-1 {
        fill: #ffe800;
      }

      .cls-2 {
        fill: #de5626;
      }
    </style>
  </defs>
  <g>
    <path class="cls-1" d="M323.32,137.11c-8.06-27.83-19.54-52.04-34.12-71.98-14.93-20.4-32.88-36.48-53.38-47.77C214.95,5.84,192,0,167.65,0s-47.3,5.84-68.22,17.36c-20.45,11.24-38.37,27.32-53.33,47.77-14.58,19.96-26.1,44.17-34.14,72C4.02,164.52,0,195.35,0,228.72s4.02,64.17,11.97,91.61c8.04,27.79,19.56,52,34.14,71.95,14.93,20.45,32.88,36.53,53.35,47.81,20.89,11.5,43.82,17.32,68.19,17.32s47.3-5.82,68.22-17.36c20.47-11.26,38.4-27.34,53.33-47.77,14.58-19.91,26.06-44.15,34.12-71.95,7.95-27.44,11.97-58.24,11.97-91.61s-4.02-64.2-11.97-91.61ZM262.14,318.67c-16.13,30.15-38.79,48.14-65.9,52.35-46.27,7.95-86.7-26.41-103.06-87.87-17.53-65.67-2.34-147.7,60.29-170.36h.7c23.6-7.01,46.74,1.17,64.97,22.43,28.04,32.72,43.47,96.98,20.1,148.4-11.92,27.81-33.65,44.17-55.62,41.6-30.61-2.34-53.98-44.64-55.39-81.33-2.57-31.32,9.82-60.06,30.15-69.88,13.32-6.31,27.81-3.27,39.73,8.18,16.59,14.49,24.3,49.54,8.88,69.17-4.67,6.08-12.15,9.58-19.4,9.11-6.31-.47-11.68-3.74-14.72-8.88-4.21-7.71-1.87-16.83,2.8-28.51,2.1-5.37,8.18-7.95,13.55-5.84,2.1.93,3.97,2.34,5.14,4.44-.7-9.35-4.67-19.16-10.28-23.84-8.88-8.65-14.72-5.84-16.83-4.91-10.52,5.14-20.33,25.01-18.23,49.54,1.17,30.15,19.4,60.53,36.69,61.93,12.62,1.64,26.17-10.05,34.35-29.21,19.63-43.47,6.54-99.32-16.83-126.43-8.88-10.28-23.6-21.5-43-16.36-48.61,17.99-62.16,87.87-46.74,145.13,10.75,39.96,37.16,80.16,79.69,72.68,25.71-3.97,41.83-24.77,50.71-41.6,24.07-44.87,25.94-110.77,4.67-156.34-21.73-43.23-50.01-67.07-79.69-67.07h-.47c-28.51,0-57.26,23.14-75.02,60.06-40.9,84.6-6.31,177.61,35.52,231.59,3.51,4.67,2.8,11.22-1.87,14.72-1.87,1.4-4.21,2.1-6.31,2.1l-.47.23c-3.04,0-6.08-1.4-8.18-3.97-73.15-93.71-66.14-195.14-37.86-253.56,21.5-44.64,56.55-71.51,93.71-71.74h.7c37.86,0,72.68,28.04,98.39,78.76,24.07,51.41,21.97,125.03-4.91,175.27Z"/>
    <path class="cls-1" d="M262.14,318.67c-16.13,30.15-38.79,48.14-65.9,52.35-46.27,7.95-86.7-26.41-103.06-87.87-17.53-65.67-2.34-147.7,60.29-170.36h.7c23.6-7.01,46.74,1.17,64.97,22.43,28.04,32.72,43.47,96.98,20.1,148.4-11.92,27.81-33.65,44.17-55.62,41.6-30.61-2.34-53.98-44.64-55.39-81.33-2.57-31.32,9.82-60.06,30.15-69.88,13.32-6.31,27.81-3.27,39.73,8.18,16.59,14.49,24.3,49.54,8.88,69.17-4.67,6.08-12.15,9.58-19.4,9.11-6.31-.47-11.68-3.74-14.72-8.88-4.21-7.71-1.87-16.83,2.8-28.51,2.1-5.37,8.18-7.95,13.55-5.84,2.1.93,3.97,2.34,5.14,4.44-.7-9.35-4.67-19.16-10.28-23.84-8.88-8.65-14.72-5.84-16.83-4.91-10.52,5.14-20.33,25.01-18.23,49.54,1.17,30.15,19.4,60.53,36.69,61.93,12.62,1.64,26.17-10.05,34.35-29.21,19.63-43.47,6.54-99.32-16.83-126.43-8.88-10.28-23.6-21.5-43-16.36-48.61,17.99-62.16,87.87-46.74,145.13,10.75,39.96,37.16,80.16,79.69,72.68,25.71-3.97,41.83-24.77,50.71-41.6,24.07-44.87,25.94-110.77,4.67-156.34-21.73-43.23-50.01-67.07-79.69-67.07h-.47c-28.51,0-57.26,23.14-75.02,60.06-40.9,84.6-6.31,177.61,35.52,231.59,3.51,4.67,2.8,11.22-1.87,14.72-1.87,1.4-4.21,2.1-6.31,2.1l-.47.23c-3.04,0-6.08-1.4-8.18-3.97-73.15-93.71-66.14-195.14-37.86-253.56,21.5-44.64,56.55-71.51,93.71-71.74h.7c37.86,0,72.68,28.04,98.39,78.76,24.07,51.41,21.97,125.03-4.91,175.27Z"/>
  </g>
  <path class="cls-2" d="M261.97,318.58c-.23.42-.32.91-.55,1.33s-.09,1.04-.32,1.46-.76.67-1,1.08-.54.79-.78,1.21-.43.86-.68,1.26-.88.58-1.13.99-.2,1-.45,1.4-.69.7-.95,1.1.03,1.17-.23,1.57-.52.81-.79,1.2-1.08.42-1.35.81-.3.96-.57,1.35-.56.78-.84,1.17-.61.74-.9,1.12-.93.49-1.22.87-.3.97-.6,1.35-.74.63-1.04,1-.55.78-.85,1.15-.6.74-.91,1.1-.41.91-.73,1.27-.35.97-.67,1.32-.82.55-1.14.9-.64.71-.97,1.06-.54.81-.88,1.15-.82.54-1.16.88-.98.36-1.33.69-.64.7-.99,1.03-.49.88-.84,1.2-.71.64-1.07.96-.7.65-1.07.96-.69.66-1.06.97-.99.3-1.36.6-.77.55-1.15.85-.36,1.1-.74,1.39-.72.64-1.11.92-.87.43-1.26.7-1.16,0-1.56.26-.79.53-1.19.79-.73.63-1.13.88-.93.29-1.34.54-.74.62-1.15.86-.51,1.04-.93,1.27-1.23-.27-1.65-.04-.54,1.02-.97,1.24-1.01.1-1.44.31-.88.36-1.31.56-.89.33-1.33.52-.66.89-1.1,1.07-.98.12-1.43.3-1.05-.09-1.5.07-.64,1.03-1.09,1.19-.99.05-1.45.2-1-.01-1.46.13-.82.56-1.28.7-.94.16-1.4.29-.83.59-1.29.71-.95.15-1.41.25-.95.11-1.42.21-.97-.02-1.44.07-.84.72-1.31.8-.97.02-1.44.09c-.47.08-1.03-.39-1.51-.32s-.91.42-1.38.49-.94.2-1.42.25-.98-.18-1.46-.13-.91.57-1.39.6-.98-.23-1.46-.2-.95.16-1.43.18-.96-.05-1.44-.04-.96-.04-1.44-.04-.95-.3-1.43-.3-.98.74-1.46.72-.93-.66-1.41-.68-.96.05-1.44.01-1.01.5-1.48.45-.97,0-1.45-.06-.84-1.01-1.31-1.07-.98.14-1.46.07-.97.02-1.45-.06-.89-.43-1.36-.52-1,.13-1.47.03-.99,0-1.45-.12-.94-.23-1.4-.35-.89-.4-1.35-.53-.87-.43-1.33-.57-.93-.22-1.39-.37-.8-.61-1.25-.77-.97-.11-1.42-.27-1.08.15-1.53-.03-.81-.56-1.26-.74-.62-.99-1.06-1.18-1.16.25-1.6.05-.81-.53-1.25-.74-.77-.61-1.2-.83-.92-.31-1.34-.53-1.03-.11-1.45-.34-.56-.97-.97-1.2-.76-.59-1.17-.84-1.08-.06-1.49-.32-.73-.64-1.14-.9-.79-.54-1.19-.81-.83-.48-1.22-.76-.85-.46-1.24-.75-.79-.55-1.17-.84-.42-1.03-.8-1.32-1.11-.14-1.48-.44-.35-1.08-.72-1.39-1.18-.08-1.55-.39-.82-.52-1.18-.84-.29-1.12-.64-1.44-.47-.89-.82-1.22-1.1-.22-1.45-.55-.52-.84-.86-1.17-1.04-.31-1.38-.66-.27-1.07-.6-1.42-.44-.9-.76-1.25-.78-.57-1.1-.93-.77-.59-1.09-.95-.67-.69-.98-1.05-.55-.79-.86-1.16-.52-.81-.82-1.18-.47-.84-.77-1.22-.74-.63-1.03-1.01-.39-.9-.68-1.29-.55-.78-.83-1.17-1.3-.24-1.58-.63-.31-.96-.58-1.35-.69-.69-.96-1.09-.09-1.09-.36-1.49-1.08-.44-1.34-.84-.4-.88-.66-1.29-.56-.78-.81-1.19-.55-.79-.8-1.2-.45-.85-.69-1.26-.26-.95-.5-1.37-.16-1.01-.39-1.42-.27-.94-.49-1.36-.54-.79-.76-1.21-1.14-.48-1.36-.91.06-1.11-.15-1.54-.34-.9-.55-1.33-.84-.65-1.05-1.09-.55-.8-.75-1.24-.13-1-.33-1.43-.03-1.04-.23-1.48-1.05-.58-1.25-1.02.4-1.22.22-1.66-.58-.79-.76-1.23-.81-.7-.99-1.14-.07-1-.24-1.45-.49-.84-.66-1.28.16-1.08-.01-1.53-.96-.66-1.12-1.12.08-1.05-.08-1.5-.59-.81-.75-1.26.03-1.02-.13-1.48-.79-.74-.94-1.2.12-1.05-.03-1.5-.66-.79-.8-1.25-.24-.93-.38-1.39.12-1.04-.01-1.5-.83-.76-.96-1.22.21-1.06.08-1.52-.84-.76-.97-1.23-.34-.91-.46-1.38c-.12-.46-.29-.92-.41-1.39s.33-1.08.21-1.54-.82-.79-.93-1.26.51-1.11.4-1.58-.83-.79-.94-1.26.39-1.07.29-1.54-.34-.91-.44-1.38-.09-.96-.19-1.43,0-.98-.09-1.45-.92-.8-1.01-1.27.33-1.04.25-1.51.06-.99-.02-1.46-.16-.94-.24-1.42-.66-.86-.74-1.34-.37-.92-.44-1.39.04-.98-.03-1.46.4-1.03.34-1.5-.55-.89-.61-1.37.08-.98.02-1.46,0-.97-.05-1.45-.46-.92-.51-1.39.03-.97-.02-1.45-.2-.95-.24-1.43-.26-.94-.3-1.42-.42-.93-.45-1.41.89-1.04.86-1.51-.15-.95-.18-1.43-.94-.9-.97-1.38.73-1.01.71-1.49-.6-.93-.62-1.41-.26-.95-.28-1.44.62-.99.6-1.47-.7-.94-.71-1.43.72-.98.71-1.46-.77-.95-.78-1.43.94-.97.94-1.45.03-.96.03-1.44-.11-.96-.11-1.44-.51-.97-.5-1.45.03-.96.04-1.44.65-.94.66-1.42.06-.96.08-1.44-.23-.97-.21-1.45-.52-.99-.49-1.47.69-.92.73-1.4-.29-.98-.25-1.46-.29-.99-.25-1.47.42-.93.46-1.41-.17-.98-.12-1.46.37-.93.42-1.41.4-.92.46-1.4.18-.95.24-1.42-.31-1.01-.24-1.48.53-.9.6-1.38.33-.92.4-1.4.12-.95.19-1.43-.56-1.06-.48-1.54.35-.92.43-1.39.33-.92.42-1.39.3-.92.39-1.39.15-.95.25-1.42-.28-1.04-.19-1.51.66-.84.77-1.31-.28-1.05-.18-1.52.17-.95.28-1.42.4-.9.51-1.36.41-.89.52-1.36.44-.88.56-1.34.43-.88.56-1.34-.06-1.01.08-1.48.1-.97.24-1.43.79-.77.93-1.23.15-.96.29-1.42-.37-1.14-.22-1.59,1-.68,1.16-1.14-.35-1.14-.19-1.6.59-.81.75-1.27.48-.85.65-1.3.16-.97.33-1.42.46-.86.64-1.3.62-.79.8-1.23.12-1,.31-1.44.54-.81.74-1.25-.15-1.13.05-1.57.47-.85.68-1.28.9-.64,1.11-1.07.19-.98.41-1.41.86-.64,1.08-1.07.39-.88.62-1.3.19-.99.42-1.41.17-1.01.41-1.43.99-.54,1.23-.96.17-1.02.41-1.43.36-.91.61-1.32.5-.83.76-1.23.86-.59,1.12-1,.33-.94.6-1.34.53-.8.81-1.2,1.04-.44,1.32-.83.21-1.03.5-1.42.8-.6,1.09-.99.02-1.2.31-1.58.96-.47,1.26-.84.65-.71.95-1.08.7-.66,1.02-1.03.49-.85.8-1.21.99-.4,1.31-.76.49-.85.82-1.2.76-.59,1.1-.94.3-1.06.64-1.4.56-.8.91-1.14.9-.46,1.25-.79.45-.94.81-1.26.93-.4,1.3-.72.9-.43,1.27-.74.71-.65,1.08-.95.84-.49,1.21-.79.82-.51,1.2-.8.24-1.27.63-1.56,1.07-.17,1.46-.45,1-.24,1.4-.51.54-.9.94-1.17,1.02-.19,1.42-.46.4-1.16.81-1.41,1.1-.05,1.51-.3.91-.35,1.32-.59.81-.51,1.23-.75.81-.51,1.24-.74.75-.63,1.18-.85.81-.54,1.24-.75.87-.4,1.31-.6.75-.68,1.18-.88.83-.51,1.27-.71,1.13.2,1.58.01.9-.33,1.35-.51.73-.78,1.18-.95,1.06.37,1.51.2c.35-.05.33-.02.68-.06.46-.14.97-.29,1.43-.42s.78-.78,1.25-.89,1.06.34,1.52.24.86-.52,1.33-.62.84-.75,1.31-.83.99.1,1.46.03,1,.25,1.47.2.96,0,1.43-.04.96.11,1.43.08.91-.82,1.38-.85.96-.1,1.44-.11.96.36,1.44.36.95.11,1.43.13.96-.09,1.44-.06.91.6,1.38.64,1-.44,1.47-.39.88.61,1.35.68,1.02-.38,1.49-.3,1.02-.22,1.48-.13.75,1.07,1.22,1.17,1.13-.63,1.59-.51.84.57,1.3.7.85.48,1.31.62.84.49,1.29.64.85.41,1.3.57.93.22,1.37.39,1.01.03,1.45.22.77.61,1.21.8,1.14-.2,1.57,0,.58.98,1.01,1.2.77.56,1.19.79.98.18,1.4.41,1.09.02,1.5.26.56.92.97,1.17.78.55,1.18.81,1.11.06,1.5.33.56.87.95,1.15.75.59,1.14.87.57.82.94,1.12.91.37,1.29.67.97.32,1.33.63.53.85.89,1.16.93.39,1.29.71.6.76.95,1.09.36,1,.71,1.33.68.65,1.02.99,1.11.24,1.45.58.15,1.18.48,1.53,1.23.15,1.56.51.42.91.74,1.27.72.64,1.03,1c.31.36.59.76.89,1.13s.29,1,.59,1.37,1.05.39,1.35.77.3.98.59,1.37.62.73.9,1.12.86.56,1.14.95.53.8.81,1.2.18,1.04.45,1.44.25.98.51,1.38,1.1.42,1.36.83.05,1.1.3,1.51.54.79.79,1.2.78.65,1.03,1.06.28.94.53,1.36.7.71.93,1.13.33.91.56,1.33.35.9.58,1.32.69.72.92,1.14.19.98.41,1.41.19.97.4,1.41.9.62,1.11,1.06,0,1.06.2,1.5.48.83.68,1.27.62.77.82,1.21.4.87.6,1.31.13.99.31,1.43.44.85.62,1.3.29.92.46,1.36,1.06.61,1.24,1.06-.47,1.21-.3,1.66.96.66,1.13,1.12-.14,1.07.02,1.52,1.03.66,1.19,1.11-.44,1.16-.29,1.62.65.8.79,1.25.65.8.79,1.26-.35,1.11-.21,1.57.76.77.9,1.23-.39,1.11-.25,1.57,1.05.7,1.18,1.17-.4,1.1-.27,1.57.29.91.41,1.38.07.97.18,1.44.36.9.47,1.37.09.96.2,1.43.51.87.61,1.34.56.86.66,1.33-.4,1.06-.31,1.53.52.87.61,1.35-.26,1.02-.18,1.5.91.81.99,1.29-.06.99.01,1.46-.06.98.01,1.46.53.89.6,1.37-.26,1.01-.19,1.48.47.91.53,1.39.19.95.25,1.42-.46,1.02-.4,1.5.75.89.79,1.37.2.95.24,1.43-.52,1.01-.48,1.49.06.96.1,1.44.23.95.26,1.43.3.95.33,1.43-.71,1-.69,1.48.63.94.65,1.42-.05.96-.04,1.44.46.95.47,1.44-.57.97-.57,1.45.3.96.3,1.44,0,.96,0,1.44.07.97.06,1.45-.69.94-.71,1.42.51.98.49,1.46-.02.96-.05,1.44.26.98.23,1.46-1.01.9-1.04,1.38.52,1,.48,1.48-.3.94-.34,1.42-.35.93-.4,1.41.28,1,.23,1.47.12.98.06,1.46.04.98-.03,1.45-.43.91-.5,1.39-.64.87-.72,1.35.67,1.08.59,1.55-.88.83-.96,1.3-.19.94-.28,1.41.09.99,0,1.47.21,1.02.11,1.5-.75.82-.86,1.29-.42.89-.53,1.36-.22.93-.33,1.4.51,1.12.4,1.59-.9.76-1.03,1.22-.3.91-.43,1.37.25,1.07.11,1.53-.77.77-.91,1.23.24,1.08.09,1.54-.13.97-.28,1.43-.82.74-.98,1.19.23,1.1.07,1.55-1.03.65-1.2,1.1-.19.95-.37,1.4.24,1.13.06,1.57-.45.86-.64,1.3-.45.86-.64,1.3-.73.73-.93,1.17-.04,1.03-.24,1.47c-.19.44-.44.85-.64,1.28s-.58.79-.78,1.22-.48.83-.69,1.26-.6.76-.82,1.19-.44.84-.66,1.26-.07,1.04-.3,1.46-.22.98-.45,1.39-.91.58-1.15,1,.06,1.15-.18,1.56-.94.55-1.19.96-.17,1.03-.43,1.43-1.15.39-1.41.78-.3.95-.57,1.34-.14,1.08-.42,1.46-1.02.44-1.3.82-.76.62-1.05.99-.03,1.2-.33,1.57-.9.5-1.21.86-.56.78-.87,1.14-.56.78-.88,1.13-1.02.35-1.35.69-.02,1.32-.35,1.65-.86.5-1.2.83-.71.65-1.05.97-.66.71-1.01,1.02-.96.35-1.32.66-.91.39-1.28.68-.41,1.03-.78,1.32-.94.33-1.33.61-.91.37-1.3.63-.8.5-1.2.76-.41,1.14-.82,1.38-1.06.09-1.47.33-.79.55-1.2.77-.92.3-1.34.51-.96.18-1.39.38-.71.73-1.15.91-.74.73-1.18.9-.85.48-1.3.64-.91.34-1.36.48-1.07-.22-1.53-.09-.91.28-1.37.39-.98-.03-1.45.07-.92.22-1.39.31-.85.76-1.32.83-1.03-.57-1.5-.52-.91.52-1.38.55-.95.33-1.42.34-.97,0-1.44,0-.96-.09-1.44-.11-.96-.07-1.44-.11-.94-.26-1.41-.32c-.48-.04-.97.02-1.44-.04s-.96-.09-1.43-.16-1.01.11-1.47.01-.93-.29-1.4-.4-.78-.82-1.24-.95-.95-.15-1.4-.3-1.02,0-1.46-.16-.83-.52-1.27-.71-1.04,0-1.48-.2-.54-1.1-.97-1.31-.91-.29-1.34-.51-1.02-.13-1.43-.37-.54-.95-.95-1.2-1.2.11-1.6-.15-.39-1.13-.78-1.41-1.24.09-1.62-.19-.65-.73-1.03-1.02-.31-1.14-.68-1.44-1.25.01-1.61-.3-.5-.88-.86-1.2-.63-.72-.98-1.05-.72-.62-1.06-.96-.67-.68-1-1.02-.67-.67-1-1.02-.47-.85-.79-1.21-1.13-.28-1.44-.64-.61-.74-.92-1.11-.18-1.09-.48-1.46-1.03-.41-1.32-.79-.18-1.06-.47-1.44-.46-.84-.74-1.23-.49-.82-.76-1.21-1.12-.39-1.38-.79,0-1.14-.26-1.55-1.09-.44-1.35-.84-.09-1.07-.34-1.47-.5-.81-.74-1.23-.53-.8-.76-1.21-.85-.62-1.08-1.04.02-1.1-.2-1.52-.74-.69-.95-1.12.21-1.17,0-1.6-1.19-.48-1.39-.92-.33-.9-.53-1.34-.08-1.02-.27-1.45-.52-.82-.71-1.25-.26-.92-.45-1.37-.23-.94-.41-1.38-.92-.67-1.09-1.11-.1-.99-.27-1.44-.02-1.01-.18-1.46-.7-.77-.86-1.22.36-1.13.21-1.58-.36-.88-.51-1.34-.31-.9-.45-1.36-.24-.92-.37-1.38-.29-.91-.42-1.37-.99-.72-1.11-1.19.51-1.12.4-1.58-.82-.79-.93-1.25.44-1.08.34-1.55-1.14-.73-1.24-1.2-.03-.98-.12-1.44-.21-.94-.29-1.41.32-1.03.24-1.5.16-.99.09-1.46-.94-.83-1.01-1.3.39-1.02.33-1.49-.38-.92-.44-1.39-.25-.94-.3-1.41.57-1.01.53-1.49-.05-.95-.09-1.43-.77-.91-.8-1.39.62-.99.61-1.47c-.04-.48-.69-.92-.72-1.39s.58-.99.55-1.47.02-.95,0-1.43-.17-.95-.19-1.43-.21-.95-.22-1.43-.25-.96-.24-1.44.05-.96.06-1.44.31-.95.32-1.43.06-.95.08-1.43-.53-.99-.5-1.47.1-.96.13-1.44.08-.96.12-1.44.49-.92.54-1.39.09-.96.15-1.43-.43-1.03-.36-1.5.93-.83,1.01-1.31.04-.96.12-1.43-.27-1.02-.18-1.49.14-.95.24-1.42.89-.79.99-1.26-.61-1.13-.5-1.59,1.09-.72,1.2-1.18-.39-1.09-.26-1.55.12-.97.25-1.43.9-.73,1.04-1.19-.47-1.16-.32-1.62.87-.72,1.03-1.17-.13-1.07.03-1.52,1.05-.62,1.23-1.07.17-.96.36-1.4-.2-1.13,0-1.57,1.18-.52,1.39-.95-.36-1.24-.15-1.67,1.23-.45,1.45-.88-.43-1.32-.2-1.74.55-.8.79-1.22.81-.64,1.06-1.05.82-.61,1.08-1.02.6-.74.86-1.14.07-1.11.35-1.5.65-.72.93-1.1.64-.71.94-1.09.54-.8.84-1.17.53-.81.85-1.17.39-.95.72-1.3.88-.5,1.21-.84.44-.93.79-1.26.77-.6,1.13-.91,1.03-.28,1.4-.59.72-.63,1.1-.92.55-.86.94-1.15.86-.46,1.25-.73.93-.33,1.34-.58.54-.98.95-1.22,1.26.29,1.68.07.7-.71,1.13-.92c.44-.21.92-.3,1.36-.49s.91-.29,1.36-.46.74-.81,1.19-.96,1.06.15,1.52.02.88-.43,1.35-.54.88-.52,1.35-.61.96-.2,1.43-.26.99.05,1.46,0,.97.05,1.45.02.96.09,1.44.09.98-.4,1.46-.38.97.07,1.45.11.89.66,1.37.73.95.1,1.42.19,1.01-.17,1.48-.07.94.21,1.41.34.75.82,1.21.97,1.07-.18,1.52,0,.77.65,1.22.84.9.32,1.34.52,1.19-.24,1.62-.02.82.53,1.25.77.49,1.07.91,1.32.92.33,1.33.59.91.37,1.3.65.65.73,1.04,1.03.6.79.97,1.09,1.02.26,1.39.58.91.44,1.26.76.75.6,1.11.94c.36.31.57.79.91,1.12s.75.6,1.08.95.57.78.89,1.13.33.97.64,1.33,1.04.38,1.33.75.7.68.98,1.06-.16,1.28.12,1.67.47.81.73,1.21,1.15.39,1.4.79.42.86.66,1.27.33.9.56,1.32.29.92.51,1.34.99.57,1.2,1-.2,1.14,0,1.58.19.94.38,1.38.3.89.48,1.33.49.82.66,1.26.5.82.66,1.27.73.76.87,1.21.12.96.26,1.42-.07,1.01.05,1.47.12.95.23,1.41.38.88.49,1.34.11.94.21,1.41.42.88.51,1.35-.02.97.05,1.44.86.84.92,1.31-.33,1.01-.27,1.48-.29.98-.25,1.46.21.93.24,1.4.04.94.06,1.42.82.93.83,1.4-.6.96-.6,1.44-.24.94-.26,1.42.59.98.57,1.45-.04.96-.08,1.43-.68.89-.73,1.37.39,1,.32,1.47-.28.92-.36,1.39-.19.93-.28,1.4-.65.83-.76,1.29.07.99-.05,1.45-.44.86-.58,1.31.15,1.04,0,1.49-.35.89-.51,1.33-.12.98-.3,1.42-.62.77-.82,1.2-.31.9-.53,1.33-.47.83-.7,1.25-.86.59-1.11,1,.12,1.2-.14,1.59-.77.64-1.04,1.02-.73.64-1.02,1.02c-.3.39-.66.72-.99,1.09s-.75.63-1.1.98-.47.92-.84,1.25-.9.45-1.29.75-.34,1.23-.74,1.51-1.06.21-1.49.46-1.1.05-1.53.27-.78.61-1.23.81-.75.77-1.22.94-1.13-.29-1.6-.15-.89.44-1.37.54-.87.72-1.36.79-1,.15-1.49.19-1.01-.58-1.51-.57-1.01.69-1.5.65c-.5-.04-.98-.32-1.47-.39s-1.04.04-1.52-.07-1.01-.18-1.48-.32-.89-.52-1.35-.7-.89-.47-1.33-.69-1-.28-1.42-.53-.67-.81-1.07-1.1-.54-.89-.92-1.21-1.14-.21-1.49-.56-.22-1.12-.54-1.5-.71-.66-1-1.07-1.15-.44-1.4-.87c-.23-.42.17-1.14-.02-1.57s-.3-.86-.46-1.3-.21-.88-.33-1.34-.62-.8-.7-1.27.06-.94,0-1.41-.12-.91-.14-1.39,0-.92,0-1.39-.18-.93-.15-1.41-.29-.97-.23-1.45.56-.87.64-1.34,0-.95.1-1.41,0-.96.12-1.42.56-.82.68-1.29.06-.95.19-1.41.51-.82.65-1.28.16-.93.31-1.38.57-.79.73-1.24.43-.83.6-1.28.19-.92.35-1.36-.17-1.07,0-1.52,1.02-.61,1.2-1.05c.18-.47.16-.98.4-1.4s.25-1.02.55-1.41.6-.83.95-1.17,1.12-.17,1.53-.46.63-.79,1.07-1.02.8-.64,1.27-.8,1.04.12,1.53.02.9-.76,1.4-.79,1.02.15,1.52.2.96.31,1.44.43,1.06-.02,1.53.17c.42.19.7.69,1.1.92s.56.78.93,1.05,1.05.14,1.39.46.25.98.53,1.35.98.73,1.21,1.14c-.04-.49-.23-1.23-.29-1.72s.38-1.05.31-1.53-1.08-.82-1.16-1.31.29-1.05.19-1.53-.2-.96-.32-1.44.08-1.05-.05-1.52-.84-.78-.99-1.25-.28-.94-.45-1.4-.05-1.04-.23-1.49-.72-.77-.91-1.21-.28-.95-.49-1.39-.71-.73-.94-1.16-.27-.97-.52-1.39-.47-.87-.74-1.27-.45-.89-.74-1.28-.89-.54-1.21-.9-.59-.77-.94-1.11-.76-.62-1.13-.93c-.36-.35-.66-.73-1.01-1.04-.37-.34-.26-1.21-.63-1.51-.39-.32-1.15-.13-1.53-.41-.41-.3-.9-.4-1.29-.64-.43-.27-.81-.52-1.22-.74-.45-.24-.84-.47-1.26-.66-.46-.2-.89-.34-1.33-.48-.48-.16-.8-.85-1.25-.94-.5-.1-1-.35-1.46-.38-.51-.03-1.03.29-1.48.32-.51.04-.98.28-1.41.38-.52.11-.99.22-1.4.37-.54.19-1.01.34-1.35.5-.43.21-.7.72-1.12.97s-1.19-.04-1.59.25-.6.82-.98,1.14-.55.83-.91,1.17-1.09.28-1.43.64-.48.88-.8,1.25-.46.87-.77,1.26-.59.76-.88,1.16-.52.81-.79,1.22-.93.55-1.19.97-.23.99-.48,1.42-.49.84-.72,1.27.04,1.1-.18,1.54-.89.64-1.09,1.09-.8.71-.99,1.16-.12,1.01-.3,1.46.04,1.05-.13,1.51-.34.9-.5,1.36-.67.8-.82,1.27-.48.88-.62,1.35.48,1.14.36,1.61-.74.81-.85,1.29-.14.97-.24,1.44-.38.92-.47,1.4.26,1.03.18,1.52-.4.92-.47,1.4.3,1.02.24,1.5-.57.91-.62,1.39.33,1,.29,1.49-.49.93-.53,1.42.4.99.38,1.48-.94.94-.95,1.43.53.98.53,1.47-.05.97-.04,1.46.14.97.16,1.46-.59,1-.57,1.49.36.96.39,1.45,0,.97.04,1.46c.02.48-.18.97-.15,1.46s.16.96.2,1.45.7.91.74,1.39-.21.99-.16,1.47-.34,1.02-.28,1.49.62.9.68,1.37-.31,1.03-.23,1.5.33.93.42,1.4.88.82.97,1.29.04.97.14,1.44-.16,1.02-.05,1.49.69.83.81,1.3-.61,1.15-.49,1.62.73.81.86,1.27.25.93.39,1.4-.01,1.01.13,1.48.59.83.74,1.29-.21,1.09-.05,1.55,1.05.66,1.21,1.11-.41,1.18-.24,1.63.66.79.83,1.24.52.83.7,1.28.44.86.63,1.31.58.8.78,1.24.56.8.77,1.23.14,1,.35,1.43.46.85.68,1.27-.02,1.1.21,1.53.99.56,1.23.98.26.96.5,1.38.6.77.85,1.18.48.84.73,1.25.73.68.99,1.07.52.81.79,1.2.02,1.18.31,1.56,1.04.43,1.33.81.53.81.83,1.19.42.91.73,1.27.86.53,1.18.88.23,1.12.56,1.46.68.71,1.02,1.04.7.69,1.05,1.01.82.56,1.19.86.71.69,1.09.98,1.19.03,1.58.31.38,1.16.78,1.42,1.28-.24,1.69,0,.55,1,.98,1.22.96.25,1.39.43.79.67,1.24.82,1.07-.19,1.53-.07.91.27,1.38.35.87.79,1.35.82c.48.06,1.03-.63,1.51-.61s.94-.13,1.43-.15.96.18,1.44.13.92-.23,1.4-.32.97,0,1.45-.12.99-.05,1.45-.2.72-.81,1.18-.99,1.19.34,1.63.14.75-.68,1.19-.9.95-.29,1.37-.54.46-1.07.87-1.34,1.18.03,1.58-.26.75-.62,1.14-.92.95-.38,1.33-.69.13-1.31.5-1.64,1.31-.02,1.66-.36.35-1.03.69-1.38.9-.49,1.23-.85.58-.78.9-1.16.76-.63,1.07-1.01.24-1.04.54-1.43.68-.7.97-1.1.47-.85.75-1.26.35-.93.62-1.33.82-.62,1.08-1.04.27-.97.52-1.39.44-.86.68-1.28.58-.78.81-1.21.83-.65,1.06-1.09.36-.91.58-1.35.51-.83.71-1.28.72-.75.92-1.19-.22-1.16-.03-1.61c.2-.44.84-.68,1.03-1.12s.02-1.04.2-1.48.2-.95.38-1.4.41-.86.58-1.31.57-.81.74-1.26.17-.96.33-1.41.89-.71,1.05-1.16.05-1,.19-1.45.19-.95.33-1.4.49-.86.62-1.32-.34-1.09-.21-1.55.1-.96.23-1.42,1.12-.7,1.24-1.17-.57-1.12-.46-1.59.42-.88.53-1.35.38-.9.48-1.37-.22-1.02-.13-1.49.66-.85.75-1.32-.37-1.04-.29-1.51.71-.85.78-1.33.41-.91.47-1.38-.15-.99-.09-1.47-.44-1.02-.38-1.49.47-.91.52-1.38.2-.94.25-1.42.48-.92.52-1.4-.34-.99-.31-1.47.4-.94.43-1.41.21-.95.24-1.43-.35-.98-.33-1.46-.25-.97-.24-1.44.25-.95.26-1.43.21-.96.22-1.44-.53-.96-.53-1.44-.13-.95-.13-1.43.08-.96.06-1.43.29-.97.27-1.44.2-.97.17-1.45-.37-.94-.39-1.42-.39-.93-.42-1.41.26-.98.22-1.45-.41-.92-.45-1.4.26-.98.22-1.46.43-1.01.38-1.49-.86-.87-.92-1.34.09-.97.03-1.45-.48-.9-.55-1.37.62-1.06.55-1.53-.29-.93-.37-1.4-.49-.89-.57-1.36.46-1.06.37-1.53-.63-.86-.72-1.33-.59-.86-.69-1.33-.21-.93-.31-1.4.41-1.07.3-1.54-.73-.81-.84-1.28.45-1.09.34-1.56-.51-.86-.63-1.33,0-.99-.12-1.46-.1-.97-.22-1.43-.23-.94-.36-1.4-.35-.9-.49-1.36-.41-.88-.55-1.34-.5-.85-.65-1.31.1-1.05-.05-1.5-.36-.9-.52-1.35-.87-.71-1.03-1.16-.28-.92-.44-1.37-.58-.8-.75-1.25.47-1.22.29-1.66-.5-.84-.68-1.28-.83-.7-1.01-1.14-.42-.86-.61-1.3-.2-.96-.4-1.39-.16-.99-.36-1.42-.91-.63-1.12-1.06-.28-.93-.49-1.35-.17-.99-.39-1.41-.6-.77-.82-1.19-.1-1.04-.33-1.46-.76-.68-1-1.1-.14-1.03-.38-1.44-.8-.65-1.04-1.06-.86-.6-1.11-1-.11-1.06-.37-1.46-.76-.65-1.02-1.05-.72-.67-.99-1.06-.59-.75-.87-1.14-.54-.78-.83-1.16-.36-.93-.64-1.3-.31-.97-.61-1.34-.86-.54-1.16-.9-.25-1.05-.56-1.41c-.31-.36-.65-.7-.98-1.06s-.63-.72-.96-1.07-1.06-.31-1.39-.65-.86-.48-1.2-.81-.12-1.25-.47-1.58-.76-.59-1.12-.91-1.14-.14-1.51-.45-.74-.59-1.11-.89-.35-1.09-.73-1.38-.69-.68-1.08-.96-.87-.43-1.27-.7-1.12-.02-1.53-.28-.79-.52-1.2-.76-.39-1.24-.81-1.48-1.02-.14-1.44-.36-1.01-.11-1.44-.31-.78-.57-1.22-.76-.69-.86-1.14-1.03-.95-.21-1.41-.37-1.02.04-1.48-.09-.85-.51-1.32-.63-1.03.23-1.5.13-.86-.57-1.33-.65-1.02.38-1.49.32-.88-.71-1.35-.75-.98.47-1.46.44-.93-.75-1.41-.75-.96.26-1.44.27-.96,0-1.44.03-.98-.12-1.45-.06-.84.89-1.32.96-1.02-.39-1.5-.3-1.01-.12-1.48-.02-.81.7-1.28.82c-.45.17-1.01.07-1.45.24s-.82.54-1.27.72-.67.87-1.11,1.06-1.29-.5-1.72-.29-.88.42-1.31.64-.69.78-1.12,1-.83.5-1.25.73-.65.79-1.07,1.04-.78.55-1.19.8-1.01.2-1.41.46-.76.6-1.15.87-.84.48-1.23.76-.66.72-1.05,1.01-.66.71-1.04,1-.93.36-1.31.67-.53.86-.89,1.17-1.07.23-1.43.54-.4.99-.75,1.31-1.01.32-1.36.66-.32,1.05-.66,1.39-.89.47-1.22.82-.8.57-1.12.92-.57.78-.89,1.14-.9.49-1.21.86-.1,1.17-.4,1.54-1.13.32-1.43.7-.33.97-.62,1.35-.78.62-1.07,1-.42.89-.69,1.28-.9.55-1.17.95.15,1.26-.11,1.66-1.2.36-1.46.77-.54.8-.79,1.21-.06,1.09-.31,1.5-.42.86-.66,1.28-.79.66-1.03,1.08-.17,1-.4,1.42-.79.67-1.01,1.1-.39.88-.61,1.31-.08,1.03-.29,1.47-.96.61-1.16,1.05-.15.99-.34,1.43-.67.76-.86,1.2-.27.93-.46,1.38.35,1.18.17,1.63-.31.9-.49,1.35-.89.69-1.06,1.14-.59.81-.76,1.26.24,1.1.08,1.56-.53.83-.68,1.29-.14.96-.28,1.42-.05.99-.19,1.45-.56.83-.69,1.3-.69.8-.82,1.27.21,1.05.09,1.52-.5.86-.62,1.33-.17.95-.28,1.42.07,1-.04,1.47-.55.86-.66,1.33-.3.92-.4,1.39-.27.93-.36,1.4.41,1.06.32,1.53-.49.88-.58,1.36.31,1.03.23,1.5-1.11.79-1.19,1.27.13,1,.06,1.47.02.98-.05,1.45-.05.96-.11,1.44.24,1,.18,1.48-.21.94-.26,1.42-.44.92-.49,1.4-.55.91-.59,1.39.56,1.02.52,1.5-.52.92-.55,1.4.67,1.01.64,1.49-.5.93-.53,1.41.07.97.04,1.45-.44.94-.46,1.43.24.97.23,1.45-.54.95-.56,1.43.83.98.82,1.46-.76.95-.77,1.43.15.96.15,1.45.19.96.19,1.44.05.96.06,1.44-.09.96-.07,1.45.02.96.03,1.44-.12.97-.1,1.45.7.93.72,1.41-.83,1.01-.8,1.49.09.96.12,1.44.64.92.68,1.4-.17.98-.13,1.46.17.95.22,1.43-.15.98-.1,1.46.74.89.79,1.37.04.96.09,1.44-.44,1.02-.38,1.5.65.89.71,1.37-.49,1.04-.42,1.52.34.93.41,1.4.42.91.49,1.39-.32,1.03-.24,1.5.5.89.59,1.37-.11,1-.03,1.47.54.88.63,1.35-.24,1.03-.15,1.5.18.95.28,1.42.89.8.99,1.27-.41,1.08-.3,1.55.28.93.39,1.4.55.86.67,1.33.22.94.34,1.4.02.99.15,1.45.66.82.79,1.28c.12.46.06.97.19,1.43s-.22,1.06-.09,1.52,1.02.7,1.15,1.16-.24,1.07-.1,1.52.22.93.36,1.39.31.9.46,1.36.88.71,1.04,1.17.28.91.43,1.36.24.92.4,1.38.13.97.29,1.42-.15,1.08.01,1.52.36.89.53,1.33.2.95.38,1.4.45.86.63,1.3,1.09.58,1.27,1.03-.29,1.16-.1,1.6.76.71.95,1.15.67.74.87,1.18.07,1.02.27,1.45.11,1.01.31,1.44.57.79.78,1.22.31.92.52,1.34.87.63,1.09,1.05.32.91.54,1.33.47.83.7,1.25.75.68.98,1.09.23.97.46,1.38.38.89.62,1.3.39.88.64,1.29.61.75.87,1.15.6.75.86,1.15.75.65,1.02,1.04.06,1.11.33,1.5.73.66,1.01,1.05.62.73.9,1.12.67.69.95,1.07.42.88.71,1.26.69.67.98,1.05.22,1.05.53,1.42.9.5,1.21.86.62.72.94,1.08.31,1.01.63,1.36.73.64,1.05.98.5.85.83,1.19.75.61,1.09.95.91.43,1.26.76.7.65,1.05.98.64.72,1,1.03.69.67,1.05.98,1.08.18,1.45.48.62.75,1,1.04.46.98.84,1.26.93.35,1.32.63.65.75,1.05,1.01,1.11.05,1.51.3.64.77,1.05,1.01.89.38,1.3.61.92.29,1.35.52.8.52,1.22.74.95.21,1.38.41.69.78,1.13.97.78.61,1.23.79.84.5,1.29.67,1.03-.02,1.48.13.99.04,1.45.18.85.49,1.31.62.8.73,1.26.85,1.06-.33,1.53-.22.96.06,1.43.15.82.87,1.29.94,1.01-.24,1.48-.18,1-.37,1.48-.32.91.37,1.39.41.94.15,1.42.18.95-.1,1.43-.09.95.33,1.43.33.95-.33,1.43-.34.96.17,1.44.14.98.31,1.46.27.94-.3,1.41-.35.87-.71,1.35-.77,1.06.74,1.54.66.88-.55,1.36-.63c.48-.07.99.06,1.47-.03s1.01.08,1.48-.02.87-.58,1.34-.69.91-.34,1.38-.47,1.07.22,1.53.09.73-.92,1.19-1.06.96-.17,1.42-.33.89-.38,1.34-.55.91-.33,1.35-.51.98-.16,1.43-.35,1.01-.13,1.44-.34.67-.85,1.1-1.06.98-.21,1.41-.44.65-.82,1.07-1.05.81-.51,1.23-.76,1-.22,1.41-.47.96-.31,1.36-.57.52-.96.91-1.24.65-.75,1.03-1.03.94-.34,1.33-.63.78-.56,1.16-.86.82-.52,1.19-.83.66-.71,1.02-1.03.95-.39,1.31-.71.84-.53,1.19-.86.51-.87.85-1.21.65-.72.99-1.06.6-.77.93-1.12,1.03-.36,1.36-.72.7-.68,1.02-1.04.15-1.15.47-1.52.63-.73.94-1.1.86-.54,1.16-.92.13-1.13.42-1.51,1.26-.26,1.55-.64.15-1.1.43-1.49.46-.86.73-1.25.66-.72.93-1.12.32-.94.59-1.34,1.21-.36,1.47-.77.21-1.01.47-1.42.8-.65,1.05-1.06.29-.96.53-1.37.17-1.02.4-1.44.63-.75.87-1.17.67-.74.89-1.16.19-1,.41-1.42c.23-.42.42-.86.64-1.29s.45-.85.66-1.28,1.02-.56,1.23-.99.39-.88.6-1.32-.32-1.21-.11-1.65.58-.78.78-1.22.24-.94.44-1.38.57-.8.76-1.24.73-.73.91-1.18-.21-1.12-.02-1.57.69-.75.87-1.2.32-.9.5-1.35.59-.8.76-1.25.03-1.01.2-1.46.04-1,.2-1.46,1.19-.6,1.35-1.05.33-.9.49-1.36-.37-1.14-.22-1.59.55-.83.7-1.29.44-.87.58-1.33.18-.95.32-1.41.49-.86.62-1.32.4-.89.53-1.35-.44-1.12-.31-1.58,1.04-.71,1.16-1.18.22-.94.34-1.4-.13-1.03-.01-1.49.24-.93.35-1.4.43-.89.54-1.35-.17-1.02-.06-1.49,0-.98.1-1.45.95-.78,1.05-1.25-.76-1.13-.66-1.61,1.13-.76,1.22-1.23-.76-1.12-.68-1.59,1.01-.79,1.09-1.27.27-.93.35-1.41-.23-1.01-.15-1.49.04-.97.11-1.44.17-.95.24-1.42.3-.93.36-1.4.24-.94.3-1.42.18-.95.24-1.43.09-.96.15-1.44-.59-1.03-.54-1.51.42-.92.47-1.4.11-.95.16-1.43.33-.94.37-1.41-.57-1.01-.54-1.49.28-.94.32-1.42.19-.95.22-1.43.47-.93.5-1.41.08-.96.11-1.44.04-.96.07-1.44-.57-.99-.56-1.47.1-.96.11-1.44.24-.95.25-1.43.08-.96.09-1.44.15-.96.16-1.44.11-.96.11-1.44.19-.96.19-1.44-.63-.96-.64-1.44.57-.97.56-1.45-.88-.94-.89-1.42.29-.97.27-1.45,0-.96-.01-1.44.42-.98.4-1.46-.45-.94-.47-1.42-.1-.96-.12-1.44.45-.99.41-1.47-.2-.95-.24-1.43-.07-.96-.11-1.44-.08-.96-.12-1.44.11-.98.06-1.46-.67-.9-.72-1.38.19-.99.14-1.47-.16-.95-.22-1.43-.04-.97-.1-1.44-.23-.94-.3-1.42-.56-.89-.63-1.37.66-1.07.59-1.55-.32-.93-.4-1.4-.81-.84-.89-1.32-.07-.96-.15-1.44-.32-.92-.4-1.39.06-.99-.03-1.46-.17-.95-.27-1.42-.15-.95-.25-1.42.15-1.02.04-1.49-.68-.83-.79-1.3-.18-.94-.29-1.41.4-1.09.28-1.55-.68-.82-.79-1.29-.29-.92-.42-1.38-.22-.94-.34-1.4.14-1.04,0-1.5-.54-.85-.68-1.31-.49-.86-.63-1.32-.42-.88-.56-1.33-.29-.91-.44-1.37.44-1.16.29-1.61-.53-.84-.69-1.29-.82-.73-.98-1.18.03-1.03-.14-1.48-.03-1.02-.2-1.47-1.2-.57-1.37-1.02-.19-.95-.37-1.4-.47-.84-.66-1.28-.1-1-.29-1.44-.18-.97-.37-1.41-.11-1-.31-1.44-.56-.8-.76-1.24c-.22-.43-.98-.59-1.19-1.02s-.02-1.07-.24-1.5-.07-1.05-.29-1.48-1.05-.53-1.28-.96-.05-1.07-.28-1.49-.79-.67-1.02-1.09-.21-.98-.45-1.4-.68-.73-.91-1.14-.7-.71-.94-1.12.03-1.13-.21-1.54-.83-.63-1.08-1.04-.58-.78-.82-1.19-.14-1.04-.4-1.45-1.02-.5-1.28-.9.07-1.18-.19-1.58-.7-.7-.96-1.1-.32-.94-.58-1.34-1.09-.43-1.36-.83-.3-.96-.57-1.35-.16-1.06-.43-1.45-.77-.64-1.05-1.03-.67-.7-.95-1.09-.95-.49-1.24-.88-.57-.77-.85-1.15-.03-1.18-.32-1.56-.72-.66-1.02-1.03-.47-.85-.77-1.23-.38-.94-.68-1.31-.99-.44-1.29-.81-.89-.51-1.2-.88-.35-.97-.67-1.33-.98-.42-1.3-.78-.51-.83-.83-1.19-.56-.79-.89-1.14-.66-.7-.99-1.05-.81-.56-1.14-.9-.62-.74-.95-1.08-.36-1.01-.7-1.34-.96-.39-1.31-.72-.41-.97-.76-1.29-.71-.65-1.07-.97-.6-.78-.96-1.09-1.22-.05-1.59-.36-.24-1.22-.61-1.52-.71-.67-1.08-.97-1.11-.15-1.49-.44-.64-.75-1.02-1.04-.71-.66-1.1-.94-.74-.62-1.14-.89-1.08-.12-1.48-.38-.83-.48-1.23-.74-.78-.56-1.18-.82-.76-.6-1.17-.84-.87-.41-1.29-.65-.85-.45-1.27-.68-.66-.8-1.09-1.02-.96-.24-1.39-.45-.81-.54-1.24-.74-.74-.71-1.18-.9-.99-.15-1.43-.34-.91-.31-1.36-.49-.94-.23-1.39-.39-.81-.61-1.26-.76-.96-.16-1.42-.3-.82-.63-1.28-.76-1.09.34-1.55.22-.97-.05-1.44-.16-.95-.12-1.42-.22-.92-.26-1.39-.34-.83-.83-1.31-.9-1.02.38-1.5.31-.97.06-1.44.01-.88-.95-1.36-.99-.98.16-1.46.14-.98.47-1.46.46-.95-.79-1.43-.79c-.23,0-.23.12-.47.12-.48,0-.96.62-1.44.64s-.98-.38-1.46-.35-.95.2-1.43.24-1.01-.37-1.49-.32-.92.46-1.4.52-.98,0-1.45.08-.85.72-1.32.81-1.01-.14-1.48-.04-.86.53-1.33.65-.91.31-1.37.43-1.1-.38-1.57-.25-.74.86-1.2,1.01-1,.01-1.46.17-.84.5-1.29.67-.92.28-1.37.45-.9.33-1.34.52-.9.33-1.34.52-1.08-.05-1.52.15-.67.82-1.11,1.03-.99.16-1.42.38-.6.91-1.03,1.14-1.21-.19-1.63.04-.65.81-1.06,1.06-.77.58-1.19.83-.71.67-1.12.93-1.1.07-1.51.33-.46,1.04-.86,1.31-.9.38-1.29.66-1.08.16-1.47.44-.77.59-1.15.88-.78.58-1.16.88-.36,1.09-.73,1.4-.88.44-1.25.75-.87.47-1.23.78-.8.55-1.16.88-.59.79-.95,1.11-.62.75-.97,1.08-.91.44-1.26.78-.6.76-.95,1.1-.63.73-.97,1.08-.29,1.05-.62,1.4-1.06.32-1.39.67-.32,1.01-.64,1.36-.97.42-1.29.78-.85.54-1.16.91-.46.87-.77,1.24-.38.94-.68,1.31-.86.54-1.16.92-.56.79-.85,1.17-.12,1.12-.41,1.51-.6.75-.89,1.13-.93.51-1.21.9-.76.64-1.04,1.04-.39.9-.67,1.3-.16,1.05-.43,1.45-.69.69-.95,1.09-.56.78-.82,1.18-1,.5-1.26.91.16,1.24-.09,1.65-.51.81-.76,1.23-.61.75-.85,1.17-.95.56-1.19.98.14,1.19-.1,1.61-.61.76-.84,1.18-.92.6-1.15,1.02-.14,1.02-.36,1.45-.96.59-1.18,1.01-.12,1.02-.34,1.45-.26.95-.47,1.38-.44.86-.65,1.3c-.21.43-.71.73-.91,1.16s-.02,1.05-.23,1.49-.71.73-.91,1.17-.58.8-.78,1.23.12,1.1-.08,1.54-.4.87-.59,1.31-.97.63-1.16,1.08-.03,1.03-.21,1.48-.08,1-.26,1.45-.86.7-1.03,1.14-.3.92-.47,1.37-.02,1.02-.19,1.47-.64.79-.8,1.24.26,1.11.1,1.57-.47.85-.62,1.31-.4.88-.55,1.33-.2.94-.35,1.4-.9.72-1.05,1.18.5,1.16.35,1.62-.72.78-.86,1.24-.21.94-.34,1.4-.65.81-.78,1.28-.29.92-.42,1.38-.29.92-.41,1.39-.22.94-.34,1.41-.25.93-.37,1.4.27,1.06.15,1.52-.12.96-.23,1.43-.82.8-.92,1.27.17,1.02.07,1.49.06.99-.04,1.46-.16.95-.25,1.42-.49.88-.58,1.35-.23.94-.32,1.41-.03.97-.12,1.44-.48.89-.56,1.37.5,1.06.42,1.53-.44.9-.51,1.38.27,1.01.2,1.49-.92.84-.99,1.32.07.98,0,1.46.38,1.02.32,1.49-.2.94-.26,1.42-.09.96-.14,1.43-.19.95-.24,1.42.08.97.04,1.45-.41.93-.45,1.41.04.97,0,1.45-.62.92-.65,1.4.82,1.02.79,1.49-.7.92-.73,1.4-.26.95-.29,1.43.07.97.05,1.45.34.97.33,1.45-.24.96-.25,1.44.46.97.45,1.45-.08.96-.09,1.44.18.96.18,1.44-.96.96-.96,1.44.75.96.75,1.44-.17.96-.16,1.44-.48.97-.46,1.45.45.95.46,1.43.09.96.11,1.44.04.96.06,1.44-.23.97-.21,1.45-.23.98-.2,1.46.56.93.59,1.41.22.95.26,1.43-.49,1-.45,1.48.16.95.2,1.43.2.95.24,1.43.78.89.82,1.37-.04.97,0,1.45.09.95.15,1.43-.13.98-.07,1.46.51.9.57,1.38-.49,1.03-.42,1.51.65.88.72,1.35-.41,1.03-.34,1.5.16.95.23,1.42.54.89.62,1.36-.34,1.03-.26,1.5.18.95.26,1.42.16.95.24,1.42.13.95.22,1.43.86.81.95,1.29.04.97.14,1.44-.04.99.06,1.46.62.85.72,1.32-.18,1.02-.08,1.49.05.97.16,1.44.34.91.45,1.38.04.98.15,1.45.36.9.47,1.37.31.91.43,1.38.04.98.16,1.45-.05,1.01.08,1.47.75.8.87,1.26-.16,1.04-.03,1.51,1.01.72,1.14,1.18.02.99.15,1.46.19.95.32,1.41.64.81.78,1.27.1.97.24,1.43-.24,1.08-.09,1.54.31.91.45,1.37.84.74.99,1.2-.43,1.15-.28,1.61.58.82.73,1.28.36.89.52,1.35.71.77.87,1.22.03,1.01.2,1.46.14.97.3,1.42.89.7,1.05,1.15.3.91.47,1.36-.46,1.2-.29,1.65,1.14.59,1.31,1.04-.17,1.1,0,1.55.17.97.35,1.41.63.79.81,1.23.91.67,1.09,1.11-.44,1.22-.25,1.67,1.16.55,1.34,1-.44,1.24-.25,1.68.65.77.84,1.21.61.78.81,1.22.46.85.66,1.28.1,1.01.3,1.45.16.99.36,1.43.47.84.67,1.28.46.85.67,1.28,1.02.58,1.23,1.01.48.84.69,1.27.29.93.51,1.36.57.79.79,1.21.43.86.65,1.28-.36,1.27-.14,1.69.54.81.76,1.23.77.68.99,1.11.35.9.58,1.32.28.94.51,1.36.72.7.95,1.12.8.65,1.03,1.07.26.95.5,1.37.37.9.6,1.31.76.67,1,1.09-.17,1.21.07,1.62.82.63,1.07,1.04.86.61,1.1,1.02-.24,1.27,0,1.68,1.29.34,1.54.75.16,1.03.41,1.44.84.61,1.1,1.01.42.87.68,1.27.61.75.87,1.15.44.86.71,1.26.34.92.61,1.32.49.82.76,1.22.4.89.67,1.29.2,1.03.47,1.42.96.5,1.24.9.75.65,1.03,1.04.55.78.83,1.17,0,1.18.28,1.57,1.14.36,1.42.74-.08,1.25.2,1.64.97.48,1.25.86.61.74.9,1.12.16,1.09.45,1.46,1.15.32,1.45.69c.3.41.49.91.74,1.34s.67.83.85,1.29.06,1.06.18,1.54-.16,1.02-.12,1.52.66.98.64,1.48-.23,1.01-.33,1.5.02,1.08-.15,1.55-.6.87-.83,1.32-.24,1.08-.54,1.49-.72.78-1.08,1.14-.8.68-1.2.99c-.36.27-1.13-.07-1.52.15s-.51,1.03-.93,1.2-1.1-.47-1.53-.35-.76.66-1.2.72-1.01-.32-1.45-.32c-.25.07-.01.95-.27,1.01-.45,0-1.04.04-1.49-.02s-.94-.14-1.37-.26-.86-.4-1.27-.58-.87-.35-1.26-.57-.71-.6-1.07-.87-.46-.84-.79-1.15-.86-.42-1.14-.78c-.3-.38-.85-.56-1.15-.94s-.29-1-.58-1.38-.51-.83-.8-1.21-.28-.99-.57-1.38-.79-.61-1.08-1-.68-.69-.97-1.08-.67-.71-.95-1.09-.35-.94-.63-1.33-.38-.91-.66-1.3-.91-.54-1.19-.93-.28-.98-.56-1.37-.43-.87-.7-1.27-.71-.68-.98-1.08-.53-.8-.8-1.2-.94-.53-1.21-.93,0-1.15-.27-1.55-1.03-.47-1.3-.87.06-1.19-.2-1.59-.99-.5-1.25-.91-.32-.94-.58-1.34-.87-.59-1.13-1-.43-.87-.69-1.27-.76-.66-1.01-1.07.16-1.23-.09-1.64-.52-.81-.77-1.22-.91-.58-1.16-.99-.14-1.03-.39-1.45-.43-.86-.67-1.28-.71-.7-.95-1.12-.66-.73-.89-1.15-.08-1.06-.32-1.48-.39-.89-.62-1.31-.32-.92-.55-1.34-1.17-.46-1.4-.88-.18-1-.4-1.42-.63-.76-.85-1.18-.69-.73-.91-1.16-.28-.94-.5-1.37.03-1.09-.19-1.52-.75-.7-.96-1.13-.04-1.05-.25-1.49-.54-.8-.75-1.24-.63-.77-.83-1.2-.51-.82-.72-1.26-.56-.8-.76-1.24-.01-1.06-.21-1.49-.34-.9-.54-1.34-.35-.9-.55-1.33-.63-.77-.83-1.21.11-1.1-.08-1.54-.61-.78-.8-1.22-.2-.96-.39-1.4-.7-.75-.89-1.2-.38-.89-.56-1.33-.6-.8-.78-1.24-.57-.81-.75-1.26-.09-1-.27-1.45.15-1.09-.02-1.54-.33-.9-.5-1.35-.81-.73-.98-1.18-.28-.92-.44-1.38-.05-1.01-.21-1.46-.9-.71-1.05-1.16-.35-.9-.51-1.35.46-1.17.3-1.63-.8-.75-.96-1.2-.31-.91-.46-1.37-.64-.81-.79-1.27.51-1.17.37-1.63-.28-.92-.42-1.38-1.09-.68-1.23-1.14.49-1.15.35-1.61-.87-.75-1.01-1.21.41-1.12.28-1.58-1.03-.71-1.16-1.18-.18-.95-.3-1.42.36-1.09.23-1.56-.58-.84-.7-1.31-.14-.96-.26-1.42.04-1-.08-1.47-.66-.83-.77-1.3.04-1-.07-1.47-.13-.96-.24-1.42-.25-.93-.35-1.4-.78-.82-.88-1.29-.3-.92-.4-1.39.21-1.03.12-1.5-.59-.87-.68-1.34.09-1,0-1.47.17-1.01.08-1.48-.72-.85-.81-1.32.54-1.07.45-1.54-.54-.88-.62-1.36.03-.98-.04-1.45-.16-.95-.23-1.42-.23-.94-.3-1.41-.08-.96-.14-1.44.1-.98.03-1.46-.82-.86-.88-1.34-.03-.97-.09-1.44.42-1.02.36-1.5-.11-.95-.16-1.43-.51-.91-.56-1.39-.35-.93-.4-1.41.67-1.03.62-1.51-.35-.93-.39-1.41.25-.99.21-1.46-.27-.94-.31-1.42-.66-.92-.69-1.4.45-.99.42-1.47-.57-.93-.6-1.41.7-1,.68-1.48-.17-.95-.19-1.43-.83-.93-.85-1.41.66-.99.65-1.47-.47-.95-.49-1.43-.09-.96-.1-1.44-.19-.96-.2-1.44.6-.97.59-1.45.07-.96.07-1.44-.72-.96-.72-1.44.93-.96.93-1.44-.51-.97-.5-1.45-.35-.97-.34-1.45.25-.96.26-1.44.67-.94.69-1.42-.8-.99-.79-1.47.22-.96.24-1.44.54-.94.57-1.42.13-.95.16-1.43-.38-.99-.35-1.47.04-.96.08-1.44.48-.93.51-1.41-.4-1-.36-1.48-.13-.98-.09-1.46.23-.95.27-1.43.57-.91.61-1.39.34-.93.39-1.41.11-.95.16-1.43-.09-.98-.03-1.45-.3-1.01-.24-1.48.63-.89.69-1.36-.66-1.06-.6-1.54.66-.88.72-1.35,0-.97.06-1.45.43-.91.5-1.38.11-.96.19-1.43-.24-1.02-.16-1.49.51-.89.59-1.36-.4-1.05-.32-1.53.5-.89.59-1.36-.12-1.01-.02-1.48.88-.81.97-1.28.04-.97.14-1.44.23-.93.33-1.4,0-.99.1-1.46.05-.98.15-1.45.67-.83.78-1.3.17-.95.28-1.41-.13-1.02-.01-1.49.07-.98.19-1.44.51-.86.64-1.32.44-.88.56-1.34,0-1,.13-1.46.44-.87.57-1.33-.21-1.06-.07-1.52,1.05-.69,1.19-1.14-.44-1.14-.29-1.6.76-.77.9-1.22.42-.87.57-1.33.47-.86.63-1.31-.26-1.1-.1-1.56.91-.7,1.07-1.15.08-.99.24-1.44-.29-1.13-.12-1.58.59-.81.76-1.25.1-.99.27-1.44.41-.87.59-1.32.68-.76.86-1.21.68-.76.86-1.2.32-.91.5-1.35.31-.91.5-1.35.12-1,.31-1.43.87-.66,1.06-1.1.48-.83.68-1.26-.21-1.16,0-1.59.5-.82.71-1.24c.21-.44.72-.73.93-1.16s-.04-1.1.18-1.53.48-.84.69-1.27.88-.63,1.11-1.06.22-.97.45-1.4.34-.92.56-1.34.19-1,.42-1.42,1.13-.48,1.37-.9-.01-1.12.23-1.54,1.09-.48,1.34-.9.08-1.07.33-1.49.38-.9.63-1.31.48-.84.73-1.25.45-.86.7-1.27.45-.86.72-1.26.48-.84.75-1.25,1.03-.48,1.29-.88.69-.69.97-1.09.5-.82.78-1.22.67-.71.95-1.1,0-1.2.27-1.59.51-.83.8-1.21,1.16-.33,1.45-.72.19-1.07.48-1.45.33-.97.63-1.35.7-.68,1-1.05.81-.59,1.11-.96.62-.74.93-1.11.82-.57,1.14-.93.72-.65,1.04-1.02.79-.58,1.12-.94.54-.81.86-1.17.7-.67,1.03-1.02.21-1.13.54-1.48.99-.38,1.33-.73.76-.6,1.1-.94.44-.93.78-1.26.4-.98.75-1.31,1.25-.07,1.61-.4.66-.71,1.01-1.03.56-.82.92-1.14.68-.68,1.05-1,.59-.8.96-1.11.9-.42,1.28-.73.63-.76,1.01-1.06.76-.6,1.14-.9.63-.78,1.01-1.07,1.07-.18,1.46-.46.76-.6,1.15-.88.78-.56,1.18-.83.5-.99.9-1.25,1.32.25,1.72-.02.54-.93.95-1.19.78-.57,1.19-.82.87-.43,1.28-.67.9-.36,1.32-.6.87-.41,1.29-.64.57-.97,1-1.19.81-.54,1.24-.76,1.13.1,1.56-.11.97-.2,1.41-.4.69-.79,1.13-.99.86-.43,1.31-.62.72-.79,1.16-.98,1.04-.02,1.49-.2.83-.52,1.28-.69,1.02-.02,1.47-.18.98-.11,1.43-.27.93-.24,1.39-.38.92-.25,1.38-.39.85-.51,1.31-.64.8-.73,1.26-.85.95-.2,1.42-.32.94-.25,1.4-.36.97-.11,1.44-.21,1.03.23,1.5.14.93-.24,1.41-.32.96-.08,1.43-.15.87-.69,1.35-.75.98.07,1.46.02.93-.36,1.41-.41.96-.15,1.44-.19.99.23,1.47.2.97.17,1.45.15.95-.55,1.43-.56.97.38,1.45.38c.35,0,.35-.43.7-.43.48,0,.97.16,1.45.17s.94.73,1.42.75.98-.45,1.46-.42.96.07,1.44.11.96.09,1.44.14.91.54,1.38.59,1.03-.48,1.5-.41.85.8,1.33.87,1.01-.23,1.48-.15.88.49,1.35.58,1.09-.54,1.56-.44.94.21,1.41.32.86.55,1.32.67.83.61,1.29.74,1.07-.27,1.53-.13.84.55,1.3.69,1.09-.24,1.54-.09.85.51,1.3.67.89.36,1.34.53.92.28,1.37.45.9.34,1.35.52.85.46,1.29.65,1.02.07,1.46.27.72.74,1.16.94.65.86,1.08,1.07.95.22,1.38.44.84.45,1.27.68.82.49,1.25.72,1.03.11,1.45.35.64.82,1.05,1.06.77.57,1.18.82,1.21-.14,1.62.11.53.96.93,1.22.63.78,1.03,1.05,1.27-.17,1.67.11.59.83.98,1.11.86.45,1.25.74.51.92.9,1.2.98.29,1.36.58.72.64,1.1.94,1.03.25,1.41.55.38,1.05.75,1.36.57.81.93,1.12,1.13.15,1.49.47.62.75.98,1.07,1,.33,1.35.66.6.77.95,1.1.16,1.22.51,1.56.84.51,1.19.84.79.56,1.13.9,1.04.32,1.38.66.41.95.74,1.29.96.41,1.29.76.14,1.19.47,1.54,1.14.26,1.46.62.22,1.09.55,1.45.65.71.97,1.07.97.43,1.29.79.35.96.66,1.33.67.69.98,1.06.77.61,1.08.98.58.77.88,1.14.66.7.96,1.08-.04,1.24.26,1.62,1.08.38,1.37.76.36.93.65,1.31.36.93.64,1.31,1.14.36,1.42.75.62.74.9,1.14.21,1.03.49,1.42,1,.48,1.27.88.15,1.06.42,1.46.53.8.79,1.21.21,1.01.47,1.42.94.53,1.2.93.52.81.78,1.21.15,1.04.4,1.45,1.13.43,1.38.84,0,1.13.24,1.55.31.93.56,1.35.75.67.99,1.09.37.89.62,1.31.68.72.92,1.14.4.88.64,1.29.41.87.64,1.29.66.73.89,1.16.58.78.81,1.2.74.7.97,1.12.13,1.02.36,1.45.32.92.55,1.35.26.95.48,1.38.6.78.82,1.21c.2.43.73.72.92,1.15s.56.8.75,1.24-.42,1.23-.23,1.67.82.69,1,1.13.42.86.61,1.3-.18,1.1,0,1.55.47.84.65,1.28.47.84.64,1.29.26.92.43,1.37.1.98.27,1.43,1.12.62,1.28,1.07.45.86.6,1.32-.43,1.15-.28,1.61.59.81.73,1.27.48.85.62,1.31.26.92.4,1.38.17.95.31,1.41.57.83.7,1.29-.08,1.02.04,1.48.04.98.16,1.44.72.8.84,1.26.35.9.47,1.36-.25,1.05-.13,1.51-.18,1.03-.07,1.49.82.79.92,1.26.25.93.35,1.39.12.95.22,1.42.21.94.3,1.4-.28,1.03-.19,1.5.88.8.97,1.27.24.93.32,1.4-.01.98.07,1.45.02.97.1,1.44.33.92.4,1.39.04.96.11,1.44-.22,1-.15,1.48.54.89.6,1.36.25.93.31,1.41-.01.97.05,1.44.42.91.48,1.39-.21.99-.16,1.47-.24.99-.19,1.47-.05.97,0,1.44.27.93.31,1.41.35.93.39,1.41.06.96.09,1.43-.02.96.01,1.44-.19.97-.16,1.45.85.91.88,1.38-.64,1-.62,1.47-.09.96-.07,1.44,0,.96.01,1.43.4.94.41,1.42.48.94.5,1.42-.35.97-.34,1.45-.3.96-.29,1.44.42.95.42,1.43-.51.96-.51,1.44,0,.95,0,1.43.59.96.58,1.44-.31.95-.31,1.43.64.97.63,1.45-.09.96-.1,1.44-.17.96-.19,1.43-.43.94-.45,1.42.24.97.21,1.45.06.96.03,1.44.05.96.02,1.44-.89.9-.93,1.38.51.99.47,1.47-.41.93-.45,1.41-.13.95-.17,1.43.12.97.07,1.45.08.97.03,1.45-.09.95-.14,1.43.32,1,.27,1.48-1.03.85-1.08,1.32.34,1.01.29,1.48-.57.89-.63,1.37.74,1.07.68,1.54-1.04.82-1.1,1.3.06.98,0,1.45.08.98,0,1.45.28,1.02.2,1.49-.79.84-.87,1.31-.35.91-.43,1.38.56,1.08.48,1.55-.53.88-.62,1.35-.09.96-.18,1.43-.53.87-.63,1.34.09,1,0,1.47-.65.84-.75,1.31-.1.96-.21,1.42.5,1.1.39,1.57-.42.89-.53,1.35-.63.83-.75,1.3.13,1.02.02,1.49-.05.98-.17,1.44-.84.77-.96,1.23.44,1.12.31,1.58-.53.85-.66,1.31-.36.9-.49,1.35-.17.95-.31,1.41-.12.97-.26,1.43-1.01.68-1.16,1.14.29,1.1.14,1.55-.65.79-.81,1.25-.27.92-.43,1.37.17,1.08,0,1.53-.35.9-.51,1.35-.39.88-.56,1.33-.95.66-1.12,1.11.12,1.07-.05,1.52-.44.86-.62,1.3-.55.81-.73,1.25-.62.78-.8,1.22.36,1.2.17,1.63-.85.68-1.04,1.12-.49.83-.69,1.27-.16.98-.36,1.41-.06,1.03-.27,1.46-.39.88-.6,1.31-.82.67-1.03,1.09-.69.72-.9,1.15.02,1.09-.2,1.51-.82.64-1.05,1.06Z"/>
</svg>