<?xml version="1.0" encoding="UTF-8"?>
<svg id="Layer_1" data-name="Layer 1" xmlns="http://www.w3.org/2000/svg" viewBox="0 0 97.08 296.92">
  <defs>
    <style>
      .cls-1 {
        fill: #ffe800;
      }

      .cls-2 {
        fill: #de5626;
      }
    </style>
  </defs>
  <path class="cls-1" d="M73.72,127.07c-7.9,11.05-19.82,17.61-32.02,17.61-7.96,0-15.48-2.68-21.77-7.73-.12-.1-.25-.21-.39-.31C7.91,126.93,1.42,111.68,3.03,97.78c0-.05.01-.1.02-.15.71-5.97,2.71-10.94,4.94-15.04-4.21-6.92-6.84-14.98-7.63-23.75-1.8-15.46,3.14-31.49,13.27-43.02C22.6,5.61,34.67,0,47.64,0c6.2,0,12.36,1.29,18.32,3.85.35.15.69.3,1.04.47,18.17,8.67,29.1,27.88,30,52.71.94,24.22-7.32,49.06-23.28,70.04Z"/>
  <polygon class="cls-2" points="50.32 109.89 51.06 111.9 49.73 112.33 48.68 112.93 47.83 113.7 47.19 114.76 45.86 114.84 45.17 115.98 43.82 115.69 43 117.29 41.7 116.35 40.47 117.05 39.54 116.03 38.61 115.45 37.01 115.71 36.99 113.84 36 113.13 35.56 111.91 34.07 111.51 34.03 110.07 32.25 109.67 32.62 108.08 32.68 106.76 30.62 106.15 31.87 104.54 31.74 103.38 30.23 102.24 30.7 100.97 31.98 99.99 31.49 98.61 31.36 97.21 32.64 96.45 32.81 95.15 34.55 94.79 35.17 93.77 35.08 92.24 35.56 91.08 36.34 90.14 37.85 89.7 38.29 88.51 38 86.88 39.11 86.14 40.19 85.33 40.38 84.06 40.28 82.73 40.6 81.6 41.02 80.48 41 79.3 41.29 78.11 41.77 77.31 41.84 77.4 39.72 77.3 40.2 75.22 39.12 74.43 37.32 74.62 36.74 73.3 35.91 72.49 35.39 71.36 33.79 71.27 33.36 70.08 32.35 69.35 32.67 67.75 32.18 66.72 31.89 65.61 30.33 65.06 29.58 64.09 28.92 63.05 29.14 61.74 29.97 60.34 28.12 59.54 29.54 58.12 29.08 57.03 28.96 55.87 27.98 54.78 27.64 53.6 27.72 52.39 27.78 51.19 28.32 50.04 27.79 48.77 29.51 47.85 28.83 46.53 29.36 45.44 29.84 44.36 28.97 42.82 30.69 42.2 30.68 40.92 30.94 39.73 31.31 38.57 31.53 37.29 32.3 36.33 33.49 35.7 34.78 35.22 35.83 34.62 35.32 32.47 36.76 32.24 37.96 31.85 38.98 31.28 39.74 30.3 40.99 30.15 42.18 30.05 43.19 29.53 44.31 29.35 45.41 29.13 46.49 28.53 47.64 27.38 48.93 27.58 50.01 29.04 51.15 29.37 52.6 28.67 53.85 28.9 54.64 30.24 55.82 30.46 56.54 31.52 57.35 32.35 59.22 31.85 60.3 32.48 60.56 33.94 60.68 35.39 61.73 36.02 62.45 36.93 62.75 38.12 63.33 39.11 64.68 39.71 64.38 41.15 65.39 41.98 66.23 42.92 65.86 44.31 67.32 45.08 67.96 46.15 66.79 47.68 67.15 48.8 67.22 49.98 68.7 50.92 67.48 52.3 68.96 53.31 69.38 54.47 67.9 55.79 68.29 56.94 68.97 58.09 69.56 59.28 69.7 60.49 68.96 61.69 67.93 62.87 68.14 64.06 69.53 65.34 69.11 66.52 67.72 67.6 68.36 68.87 67.59 69.98 68.25 71.27 68.53 72.53 68.51 73.76 68.04 74.9 66.55 75.82 67.25 77.2 66.12 78.16 65.87 79.32 66.37 80.7 65.38 81.66 65.9 83.07 64.67 83.94 64.05 84.99 64.59 86.45 64.3 87.62 64.04 88.82 63.09 89.73 63.07 91.03 61.74 91.76 61.83 93.12 61.29 94.19 59.73 94.76 60.87 96.68 58.81 96.96 58.23 98 58.84 99.71 58.56 100.94 57.77 101.89 56.76 102.68 55.93 103.58 55.93 105.02 54.92 105.8 54.43 106.93 53.68 107.87 52.82 108.74 52.09 109.7 50.32 109.89"/>
</svg>